<svg xmlns="http://www.w3.org/2000/svg" width="1139" height="966" viewBox="0 0 1139 966">
    <g fill="none" fill-rule="evenodd" transform="translate(0 2)">
        <path fill="#525252" d="M672 155h3v68h-3zM682 155h3v68h-3zM692 155h3v68h-3zM702 155h3v68h-3zM712 155h3v68h-3zM722 155h3v68h-3zM732 155h3v68h-3zM742 155h3v68h-3zM752 155h3v68h-3zM762 155h3v68h-3zM772 155h3v68h-3z"/>
        <path fill="#CBEEF0" d="M746 4h99v98h-99zM857 4h56v98h-56zM507 4h99v98h-99zM610 4h120v98H610z"/>
        <path fill="#EBE0DC" d="M279 269h216v143H279zM539 270h445v283H539zM541 138h99v120h-99z"/>
        <path fill="#CBEEF0" d="M648 599h482v48H648z"/>
        <path fill="#EBE0DC" d="M183 13h309v191H183z"/>
        <path fill="#CBEEF0" d="M59 655h120v143H59zM57 819h176v130s-28.887 4.156-70.797-15.758C120.293 913.328 113.625 892 113.625 892H57v-73z"/>
        <path fill="#EBE0DC" d="M358 431h146v89H358z"/>
        <path fill="#CBEEF0" d="M580.418 612l30.008 32.18-42.418 39.555L538 651.555z"/>
        <text fill="#525252" font-family="FreightSansProBold-Regular, FreightSans Pro" font-size="16" font-weight="bold">
            <tspan x="346" y="344">RESTROOM</tspan>
        </text>
        <text fill="#525252" font-family="FreightSansProBold-Regular, FreightSans Pro" font-size="16" font-weight="bold">
            <tspan x="540" y="629">PHONE </tspan> <tspan x="540" y="650">BOOTH</tspan>
        </text>
        <text fill="#525252" font-family="FreightSansProBold-Regular, FreightSans Pro" font-size="16" font-weight="bold">
            <tspan x="98" y="740">ZUMA</tspan>
        </text>
        <text fill="#525252" font-family="FreightSansProBold-Regular, FreightSans Pro" font-size="16" font-weight="bold">
            <tspan x="65" y="861">OFFICE DIRECTOR OFFICE</tspan>
        </text>
        <text fill="#525252" font-family="FreightSansProBold-Regular, FreightSans Pro" font-size="16" font-weight="bold">
            <tspan x="382" y="484">KITCHEN AREA</tspan>
        </text>
        <path fill="#FBCBB3" d="M242 431h86v89h-86z"/>
        <text fill="#525252" font-family="FreightSansProBold-Regular, FreightSans Pro" font-size="16" font-weight="bold">
            <tspan x="237" y="479">FRONT DESK</tspan>
        </text>
        <path fill="#CBEEF0" d="M58 13h101v98H58zM55 129h99v98H55zM921 4h99v98h-99zM1032 4h99v98h-99zM1031 107h99v98h-99zM1031 213.226h99v98h-99zM1033 321.5h99v109h-99z"/>
        <path stroke="#525252" stroke-width="4" d="M46 896.715V0h1090.352v652.08H621.519L380.07 896.714s-47.668 64.922-137 64.922-135.89-64.922-135.89-64.922H46z"/>
        <text fill="#525252" font-family="FreightSansProBold-Regular, FreightSans Pro" font-size="16" font-weight="bold">
            <tspan x="65" y="53">MOTHER’S ROOM</tspan>
        </text>
        <text fill="#525252" font-family="FreightSansProBold-Regular, FreightSans Pro" font-size="16" font-weight="bold">
            <tspan x="57" y="166">SALES</tspan>
        </text>
        <text fill="#525252" font-family="FreightSansProBold-Regular, FreightSans Pro" font-size="16" font-weight="bold">
            <tspan x="631" y="51">TOPANGA</tspan>
        </text>
        <text fill="#525252" font-family="FreightSansProBold-Regular, FreightSans Pro" font-size="16" font-weight="bold">
            <tspan x="777" y="51">SEAL</tspan>
        </text>
        <text fill="#525252" font-family="FreightSansProBold-Regular, FreightSans Pro" font-size="16" font-weight="bold">
            <tspan x="576.46" y="184">D&amp;F</tspan> <tspan x="568.156" y="205">SPACE</tspan>
        </text>
        <text fill="#525252" font-family="FreightSansProBold-Regular, FreightSans Pro" font-size="16" font-weight="bold">
            <tspan x="920" y="51">BREAKWATER</tspan>
        </text>
        <text fill="#525252" font-family="FreightSansProBold-Regular, FreightSans Pro" font-size="16" font-weight="bold">
            <tspan x="1043" y="51">NEWPORT</tspan>
        </text>
        <text fill="#525252" font-family="FreightSansProBold-Regular, FreightSans Pro" font-size="16" font-weight="bold">
            <tspan x="1043" y="154">WEDGE</tspan>
        </text>
        <text fill="#525252" font-family="FreightSansProBold-Regular, FreightSans Pro" font-size="16" font-weight="bold">
            <tspan x="1040" y="265">TRESTLES</tspan>
        </text>
        <text fill="#525252" font-family="FreightSansProBold-Regular, FreightSans Pro" font-size="16" font-weight="bold">
            <tspan x="1037" y="371">AD OFFICE</tspan>
        </text>
        <g transform="translate(801 162)">
            <ellipse cx="24" cy="24" stroke="#525252" rx="24" ry="24"/>
            <path fill="#525252" d="M29.407 11a.581.581 0 0 0-.515.588v5.589h-5.396a.578.578 0 0 0-.568.588v5.589h-5.396a.578.578 0 0 0-.568.588v5.589h-5.396a.578.578 0 0 0-.568.588v6.177a.593.593 0 0 0 .282.517.551.551 0 0 0 .572 0 .593.593 0 0 0 .282-.517v-5.588h5.29a.55.55 0 0 0 .275-.019h.009a.559.559 0 0 0 .23-.156.579.579 0 0 0 .045-.046.593.593 0 0 0 .026-.046.595.595 0 0 0 .054-.1.61.61 0 0 0 0-.01.6.6 0 0 0 .017-.046.61.61 0 0 0 0-.009.609.609 0 0 0 .018-.248V24.53h5.29a.55.55 0 0 0 .275-.018h.008a.559.559 0 0 0 .231-.156.579.579 0 0 0 .045-.046.593.593 0 0 0 .026-.046.597.597 0 0 0 .053-.11.609.609 0 0 0 .035-.303l.001-5.498h5.29a.55.55 0 0 0 .275-.018.55.55 0 0 0 .008 0 .559.559 0 0 0 .231-.156.579.579 0 0 0 .045-.046.593.593 0 0 0 .026-.046.597.597 0 0 0 .053-.11.609.609 0 0 0 .036-.303v-5.498h5.396a.564.564 0 0 0 .499-.291.607.607 0 0 0 0-.593.564.564 0 0 0-.5-.292h-6.016V11z"/>
        </g>
        <g transform="translate(135 597)">
            <ellipse cx="24" cy="24" stroke="#525252" rx="24" ry="24"/>
            <path fill="#525252" d="M29.407 11a.581.581 0 0 0-.515.588v5.589h-5.396a.578.578 0 0 0-.568.588v5.589h-5.396a.578.578 0 0 0-.568.588v5.589h-5.396a.578.578 0 0 0-.568.588v6.177a.593.593 0 0 0 .282.517.551.551 0 0 0 .572 0 .593.593 0 0 0 .282-.517v-5.588h5.29a.55.55 0 0 0 .275-.019h.009a.559.559 0 0 0 .23-.156.579.579 0 0 0 .045-.046.593.593 0 0 0 .026-.046.595.595 0 0 0 .054-.1.61.61 0 0 0 0-.01.6.6 0 0 0 .017-.046.61.61 0 0 0 0-.009.609.609 0 0 0 .018-.248V24.53h5.29a.55.55 0 0 0 .275-.018h.008a.559.559 0 0 0 .231-.156.579.579 0 0 0 .045-.046.593.593 0 0 0 .026-.046.597.597 0 0 0 .053-.11.609.609 0 0 0 .035-.303l.001-5.498h5.29a.55.55 0 0 0 .275-.018.55.55 0 0 0 .008 0 .559.559 0 0 0 .231-.156.579.579 0 0 0 .045-.046.593.593 0 0 0 .026-.046.597.597 0 0 0 .053-.11.609.609 0 0 0 .036-.303v-5.498h5.396a.564.564 0 0 0 .499-.291.607.607 0 0 0 0-.593.564.564 0 0 0-.5-.292h-6.016V11z"/>
        </g>
        <path stroke="#525252" stroke-linecap="square" stroke-width="4" d="M737.363 0v108.019H637M599 .5v108.019M164 1v100M164.28 138v80H46M46.38 388h117.9V218H46zM46.38 536h117.9v48H46zM500 .5v108.019h74.604M916 1v108.019h74.604M1021 1v108.019M851 0v108.019M639 595.964v54.055M336 418v105M1132 107.019h-87M1133 594.019H673.99M251 380.092v38.182h250V262.02H251v44.66M1132.918 205.432H1026V140M1132.918 313.432H1026V248M1132.918 422.432H1026V357"/>
        <path stroke="#525252" stroke-linecap="square" stroke-width="4" d="M737 0v108.019h74.151M916.04 1v108.019H867"/>
        <path stroke="#525252" stroke-width="4" d="M799.656 233.852h76.245v-89.024H659.879v88.438l116.414.722"/>
        <path stroke="#525252" stroke-linecap="square" stroke-width="4" d="M181 692.5v115.07M49.5 808.5h195.01v150.419M50.5 657h158.031v-48.064M46.5 121h101M46 584h160"/>
        <circle cx="396.5" cy="683.5" r="114.5" fill="#EBE0DC"/>
        <text fill="#525252" font-family="FreightSansProBold-Regular, FreightSans Pro" font-size="16" font-weight="bold">
            <tspan x="346" y="687">EVENT SPACE</tspan>
        </text>
        <text fill="#525252" font-family="FreightSansProBold-Regular, FreightSans Pro" font-size="16" font-weight="bold">
            <tspan x="710" y="417">WORKFLOOR</tspan>
        </text>
        <text fill="#525252" font-family="FreightSansProBold-Regular, FreightSans Pro" font-size="16" font-weight="bold">
            <tspan x="836" y="629">DECK (OUTSIDE)</tspan>
        </text>
        <text fill="#525252" font-family="FreightSansProBold-Regular, FreightSans Pro" font-size="16" font-weight="bold">
            <tspan x="291" y="112">WORKFLOOR</tspan>
        </text>
        <path fill="#525252" d="M57 597h3v48h-3zM67 597h3v48h-3zM77 597h3v48h-3zM87 597h3v48h-3zM97 597h3v48h-3zM107 597h3v48h-3z"/>
        <path stroke="#525252" stroke-width="4" d="M46 896.715V0h1090.352v652.08H621.519L380.07 896.714s-47.668 64.922-137 64.922-135.89-64.922-135.89-64.922H46z"/>
        <path stroke="#525252" stroke-width="4" d="M46 896.715V0h1090.352v652.08H621.519L380.07 896.714s-47.668 64.922-137 64.922-135.89-64.922-135.89-64.922H46z"/>
        <path stroke="#525252" stroke-width="4" d="M46 896.715V0h1090.352v652.08H621.519L380.07 896.714s-47.668 64.922-137 64.922-135.89-64.922-135.89-64.922H46z"/>
        <path stroke="#525252" stroke-width="4" d="M46 896.715V0h1090.352v652.08H621.519L380.07 896.714s-47.668 64.922-137 64.922-135.89-64.922-135.89-64.922H46z"/>
        <path stroke="#525252" stroke-width="4" d="M46 896.715V0h1090.352v652.08H621.519L380.07 896.714s-47.668 64.922-137 64.922-135.89-64.922-135.89-64.922H46z"/>
        <path stroke="#525252" stroke-width="4" d="M46 896.715V0h1090.352v652.08H621.519L380.07 896.714s-47.668 64.922-137 64.922-135.89-64.922-135.89-64.922H46z"/>
        <path stroke="#525252" stroke-width="4" d="M46 896.715V0h1090.352v652.08H621.519L380.07 896.714s-47.668 64.922-137 64.922-135.89-64.922-135.89-64.922H46z"/>
        <g fill="#D8D8D8" transform="translate(54 231)">
            <circle cx="3" cy="3" r="3"/>
            <circle cx="19" cy="3" r="3"/>
            <circle cx="3" cy="19" r="3"/>
            <circle cx="19" cy="19" r="3"/>
            <circle cx="35" cy="3" r="3"/>
            <circle cx="51" cy="3" r="3"/>
            <circle cx="35" cy="19" r="3"/>
            <circle cx="51" cy="19" r="3"/>
            <circle cx="67" cy="3" r="3"/>
            <circle cx="83" cy="3" r="3"/>
            <circle cx="67" cy="19" r="3"/>
            <circle cx="83" cy="19" r="3"/>
            <circle cx="99" cy="3" r="3"/>
            <circle cx="99" cy="19" r="3"/>
            <circle cx="3" cy="35" r="3"/>
            <circle cx="19" cy="35" r="3"/>
            <circle cx="3" cy="51" r="3"/>
            <circle cx="19" cy="51" r="3"/>
            <circle cx="35" cy="35" r="3"/>
            <circle cx="51" cy="35" r="3"/>
            <circle cx="35" cy="51" r="3"/>
            <circle cx="51" cy="51" r="3"/>
            <circle cx="67" cy="35" r="3"/>
            <circle cx="83" cy="35" r="3"/>
            <circle cx="67" cy="51" r="3"/>
            <circle cx="83" cy="51" r="3"/>
            <circle cx="99" cy="35" r="3"/>
            <circle cx="3" cy="131" r="3"/>
            <circle cx="19" cy="131" r="3"/>
            <circle cx="3" cy="147" r="3"/>
            <circle cx="19" cy="147" r="3"/>
            <circle cx="35" cy="131" r="3"/>
            <circle cx="51" cy="131" r="3"/>
            <circle cx="35" cy="147" r="3"/>
            <circle cx="51" cy="147" r="3"/>
            <circle cx="67" cy="131" r="3"/>
            <circle cx="83" cy="131" r="3"/>
            <circle cx="67" cy="147" r="3"/>
            <circle cx="83" cy="147" r="3"/>
            <circle cx="99" cy="131" r="3"/>
            <circle cx="99" cy="147" r="3"/>
            <circle cx="99" cy="51" r="3"/>
            <circle cx="3" cy="67" r="3"/>
            <circle cx="19" cy="67" r="3"/>
            <circle cx="3" cy="83" r="3"/>
            <circle cx="19" cy="83" r="3"/>
            <circle cx="35" cy="67" r="3"/>
            <circle cx="51" cy="67" r="3"/>
            <circle cx="35" cy="83" r="3"/>
            <circle cx="51" cy="83" r="3"/>
            <circle cx="67" cy="67" r="3"/>
            <circle cx="83" cy="67" r="3"/>
            <circle cx="67" cy="83" r="3"/>
            <circle cx="83" cy="83" r="3"/>
            <circle cx="99" cy="67" r="3"/>
            <circle cx="99" cy="83" r="3"/>
            <circle cx="3" cy="99" r="3"/>
            <circle cx="19" cy="99" r="3"/>
            <circle cx="3" cy="115" r="3"/>
            <circle cx="19" cy="115" r="3"/>
            <circle cx="35" cy="99" r="3"/>
            <circle cx="51" cy="99" r="3"/>
            <circle cx="35" cy="115" r="3"/>
            <circle cx="51" cy="115" r="3"/>
            <circle cx="67" cy="99" r="3"/>
            <circle cx="83" cy="99" r="3"/>
            <circle cx="67" cy="115" r="3"/>
            <circle cx="83" cy="115" r="3"/>
            <circle cx="99" cy="99" r="3"/>
            <circle cx="99" cy="115" r="3"/>
        </g>
        <g fill="#D8D8D8" transform="translate(53 541)">
            <circle cx="3" cy="3" r="3"/>
            <circle cx="19" cy="3" r="3"/>
            <circle cx="3" cy="19" r="3"/>
            <circle cx="19" cy="19" r="3"/>
            <circle cx="35" cy="3" r="3"/>
            <circle cx="51" cy="3" r="3"/>
            <circle cx="35" cy="19" r="3"/>
            <circle cx="51" cy="19" r="3"/>
            <circle cx="67" cy="3" r="3"/>
            <circle cx="83" cy="3" r="3"/>
            <circle cx="67" cy="19" r="3"/>
            <circle cx="83" cy="19" r="3"/>
            <circle cx="99" cy="3" r="3"/>
            <circle cx="99" cy="19" r="3"/>
            <circle cx="3" cy="35" r="3"/>
            <circle cx="19" cy="35" r="3"/>
            <circle cx="35" cy="35" r="3"/>
            <circle cx="51" cy="35" r="3"/>
            <circle cx="67" cy="35" r="3"/>
            <circle cx="83" cy="35" r="3"/>
            <circle cx="99" cy="35" r="3"/>
        </g>
        <path fill="#FFF" d="M0 396h176v130H0z"/>
        <path fill="#F7E398" d="M0 402h176v116H0z"/>
        <text fill="#525252" font-family="FreightSansProBold-Regular, FreightSans Pro" font-size="18" font-weight="bold">
            <tspan x="42" y="467">ENTRANCE</tspan>
        </text>
    </g>
</svg>
