<svg xmlns="http://www.w3.org/2000/svg" width="1055" height="1095" viewBox="0 0 1055 1095">
    <g fill="none" fill-rule="evenodd" transform="translate(2 2)">
        <path stroke="#525252" stroke-width="4" d="M897.072 1090.994H.358V.642h652.079v514.834l244.636 241.448s64.921 47.668 64.921 137-64.922 135.89-64.922 135.89v61.18z"/>
        <path fill="#525252" d="M156.355 464.867v-3h68v3zM156.355 454.867v-3h68v3zM156.355 444.867v-3h68v3zM156.355 434.867v-3h68v3zM156.355 424.867v-3h68v3zM156.355 414.867v-3h68v3zM156.355 404.867v-3h68v3zM156.355 394.867v-3h68v3zM156.355 384.867v-3h68v3zM156.355 374.867v-3h68v3zM156.355 364.867v-3h68v3z"/>
        <path fill="#CBEEF0" d="M5 391v-98h98v98zM5.355 526.867v-120h98v120z"/>
        <path fill="#EBE0DC" d="M270.5 857.5v-216h143v216zM271 598V153h283v445zM139.355 595.867v-99h120v99zM600.355 488.867v-482h48v482zM12 960V651h191v309z"/>
        <path fill="#CBEEF0" d="M662.5 1083.867v-120h143v120z"/>
        <path fill="#F7E398" d="M820 1076V900h130s4.156 28.887-15.758 70.797c-19.914 41.91-41.242 48.578-41.242 48.578V1076h-73z"/>
        <path fill="#EBE0DC" d="M432.355 778.867v-146h89v146zM798 846.468L864.468 780l35.306 35.306-66.468 66.468zM819 730.97L835.97 714l35.306 35.306-16.97 16.97z"/>
        <path fill="#CBEEF0" d="M613.354 556.449l32.18-30.008 39.556 42.419-32.18 30.008z"/>
        <path fill="#F7E398" d="M432.355 894.867v-86h89v86z"/>
        <path fill="#CBEEF0" d="M14.355 1078.867v-101h98v101zM130.355 1081.867v-99h98v99zM5.355 215.867v-99h98v99zM5.355 104.867v-99h98v99zM108.355 105.867v-99h98v99z"/>
        <path fill="#F7E398" d="M214.5 105.5v-99h98v99zM325 104V5h109v99z"/>
        <g transform="translate(167.355 276.867)">
            <ellipse cx="24" cy="24" stroke="#525252" rx="24" ry="24"/>
            <path fill="#525252" d="M29.407 11a.581.581 0 0 0-.515.588v5.589h-5.396a.578.578 0 0 0-.568.588v5.589h-5.396a.578.578 0 0 0-.568.588v5.589h-5.396a.578.578 0 0 0-.568.588v6.177a.593.593 0 0 0 .282.517.551.551 0 0 0 .572 0 .593.593 0 0 0 .282-.517v-5.588h5.29a.55.55 0 0 0 .275-.019h.009a.559.559 0 0 0 .23-.156.579.579 0 0 0 .045-.046.593.593 0 0 0 .026-.046.595.595 0 0 0 .054-.1.61.61 0 0 0 0-.01.6.6 0 0 0 .017-.046.61.61 0 0 0 0-.009.609.609 0 0 0 .018-.248V24.53h5.29a.55.55 0 0 0 .275-.018h.008a.559.559 0 0 0 .231-.156.579.579 0 0 0 .045-.046.593.593 0 0 0 .026-.046.597.597 0 0 0 .053-.11.609.609 0 0 0 .035-.303l.001-5.498h5.29a.55.55 0 0 0 .275-.018.55.55 0 0 0 .008 0 .559.559 0 0 0 .231-.156.579.579 0 0 0 .045-.046.593.593 0 0 0 .026-.046.597.597 0 0 0 .053-.11.609.609 0 0 0 .036-.303v-5.498h5.396a.564.564 0 0 0 .499-.291.607.607 0 0 0 0-.593.564.564 0 0 0-.5-.292h-6.016V11z"/>
        </g>
        <path stroke="#525252" stroke-linecap="square" stroke-width="4" d="M1.172 399.828h108.019V500.19M1.172 399.191h108.019v-80.363M1.855 537.867h108.018M2.5 972.5h100M139.14 971.86h80v118.28M389.14 1089.76v-117.9h-170v118.28zM537.14 1089.76v-117.9h48v118.28zM1.855 636.867h108.018v-74.604M1.17 221.311h108.019v-74.604M2.355 115.867h108.018M1.355 285.867h108.018M597.32 497.867h54.053M419.355 800.867h105M108.373 4.867v87M595.373 3.867v459.01M263 661.795v224.07h44.66M381.074 886.128h38.182v-250H263M206.786 3.95v106.917h-65.431M314.786 3.95v106.917h-65.431M423.786 3.95v106.917h-65.431M1.17 221.49h108.019v44.039"/>
        <path stroke="#525252" stroke-width="4" d="M235.206 337.21v-76.243h-89.024v216.021h88.438l.723-116.414"/>
        <path stroke="#525252" stroke-linecap="square" stroke-width="4" d="M693.965 973.035h115.07M811.977 892.367H961.07M264 700h82.07l.543-62.02M658.047 1090.047v-118.03h-48.063M122.355 1090.367v-101M585.355 1090.867v-119M811 1090V922.973"/>
        <circle cx="664.855" cy="750.367" r="114.5" fill="#EBE0DC" transform="rotate(-90 664.855 750.367)"/>
        <path fill="#525252" d="M598.355 1079.867v-3h48v3zM598.355 1069.867v-3h48v3zM598.355 1059.867v-3h48v3zM598.355 1049.867v-3h48v3zM598.355 1039.867v-3h48v3zM598.355 1029.867v-3h48v3z"/>
        <g fill="#D8D8D8" transform="rotate(-90 657.611 425.256)">
            <circle cx="3" cy="3" r="3"/>
            <circle cx="19" cy="3" r="3"/>
            <circle cx="3" cy="19" r="3"/>
            <circle cx="19" cy="19" r="3"/>
            <circle cx="35" cy="3" r="3"/>
            <circle cx="51" cy="3" r="3"/>
            <circle cx="35" cy="19" r="3"/>
            <circle cx="51" cy="19" r="3"/>
            <circle cx="67" cy="3" r="3"/>
            <circle cx="83" cy="3" r="3"/>
            <circle cx="67" cy="19" r="3"/>
            <circle cx="83" cy="19" r="3"/>
            <circle cx="99" cy="3" r="3"/>
            <circle cx="99" cy="19" r="3"/>
            <circle cx="3" cy="35" r="3"/>
            <circle cx="19" cy="35" r="3"/>
            <circle cx="3" cy="51" r="3"/>
            <circle cx="19" cy="51" r="3"/>
            <circle cx="35" cy="35" r="3"/>
            <circle cx="51" cy="35" r="3"/>
            <circle cx="35" cy="51" r="3"/>
            <circle cx="51" cy="51" r="3"/>
            <circle cx="67" cy="35" r="3"/>
            <circle cx="83" cy="35" r="3"/>
            <circle cx="67" cy="51" r="3"/>
            <circle cx="83" cy="51" r="3"/>
            <circle cx="99" cy="35" r="3"/>
            <circle cx="3" cy="131" r="3"/>
            <circle cx="19" cy="131" r="3"/>
            <circle cx="3" cy="147" r="3"/>
            <circle cx="19" cy="147" r="3"/>
            <circle cx="35" cy="131" r="3"/>
            <circle cx="51" cy="131" r="3"/>
            <circle cx="35" cy="147" r="3"/>
            <circle cx="51" cy="147" r="3"/>
            <circle cx="67" cy="131" r="3"/>
            <circle cx="83" cy="131" r="3"/>
            <circle cx="67" cy="147" r="3"/>
            <circle cx="83" cy="147" r="3"/>
            <circle cx="99" cy="131" r="3"/>
            <circle cx="99" cy="147" r="3"/>
            <circle cx="99" cy="51" r="3"/>
            <circle cx="3" cy="67" r="3"/>
            <circle cx="19" cy="67" r="3"/>
            <circle cx="3" cy="83" r="3"/>
            <circle cx="19" cy="83" r="3"/>
            <circle cx="35" cy="67" r="3"/>
            <circle cx="51" cy="67" r="3"/>
            <circle cx="35" cy="83" r="3"/>
            <circle cx="51" cy="83" r="3"/>
            <circle cx="67" cy="67" r="3"/>
            <circle cx="83" cy="67" r="3"/>
            <circle cx="67" cy="83" r="3"/>
            <circle cx="83" cy="83" r="3"/>
            <circle cx="99" cy="67" r="3"/>
            <circle cx="99" cy="83" r="3"/>
            <circle cx="3" cy="99" r="3"/>
            <circle cx="19" cy="99" r="3"/>
            <circle cx="3" cy="115" r="3"/>
            <circle cx="19" cy="115" r="3"/>
            <circle cx="35" cy="99" r="3"/>
            <circle cx="51" cy="99" r="3"/>
            <circle cx="35" cy="115" r="3"/>
            <circle cx="51" cy="115" r="3"/>
            <circle cx="67" cy="99" r="3"/>
            <circle cx="83" cy="99" r="3"/>
            <circle cx="67" cy="115" r="3"/>
            <circle cx="83" cy="115" r="3"/>
            <circle cx="99" cy="99" r="3"/>
            <circle cx="99" cy="115" r="3"/>
        </g>
        <g fill="#D8D8D8" transform="rotate(-90 813.111 270.756)">
            <circle cx="3" cy="3" r="3"/>
            <circle cx="19" cy="3" r="3"/>
            <circle cx="3" cy="19" r="3"/>
            <circle cx="19" cy="19" r="3"/>
            <circle cx="35" cy="3" r="3"/>
            <circle cx="51" cy="3" r="3"/>
            <circle cx="35" cy="19" r="3"/>
            <circle cx="51" cy="19" r="3"/>
            <circle cx="67" cy="3" r="3"/>
            <circle cx="83" cy="3" r="3"/>
            <circle cx="67" cy="19" r="3"/>
            <circle cx="83" cy="19" r="3"/>
            <circle cx="99" cy="3" r="3"/>
            <circle cx="99" cy="19" r="3"/>
            <circle cx="3" cy="35" r="3"/>
            <circle cx="19" cy="35" r="3"/>
            <circle cx="35" cy="35" r="3"/>
            <circle cx="51" cy="35" r="3"/>
            <circle cx="67" cy="35" r="3"/>
            <circle cx="83" cy="35" r="3"/>
            <circle cx="99" cy="35" r="3"/>
        </g>
        <path fill="#F7E398" d="M397 1084V934h132v150z"/>
        <path fill="#525252" d="M423.14 1015.8v-2.56h-6.02v-2.44h4.84v-2.54h-4.84v-2.4h6.02v-2.56H414v12.5h9.14zm10.8-4.38l-5.2-8.12h-3.44v12.5h2.98v-8.1l5.26 8.22h3.38v-12.62h-2.98v8.12zm15.86-5.46v-2.66h-11.14v2.66h3.98v9.84h3.18v-9.84h3.98zm4.94 5.76v4.08h-3.18v-12.5h5.02c3.32 0 5.06 1.54 5.06 3.96 0 1.68-.88 2.96-2.56 3.6l3.2 4.94h-3.58l-2.5-4.2-1.46.12zm-.06-2.36l1.6-.04c1.36-.1 2.1-.66 2.1-1.86 0-1.1-.76-1.64-2.36-1.64h-1.34v3.54zm16.12-6.06l4.36 12.5H472l-.92-2.66h-4.64l-.9 2.66h-3.16l4.44-12.5h3.98zm-.42 7.36l-1.6-4.9-1.66 4.9h3.26zm14.76.76l-5.2-8.12h-3.44v12.5h2.98v-8.1l5.26 8.22h3.38v-12.62h-2.98v8.12zm15.94-7.48c-1.14-.56-2.62-.94-4.14-.94-4.12 0-6.74 2.56-6.74 6.6 0 4.2 2.64 6.5 6.64 6.5 1.46 0 3.12-.36 4.1-.9l-.66-2.82c-.94.62-2.08 1.02-3.3 1.02-2.26 0-3.58-1.5-3.58-3.88 0-2.36 1.4-3.82 3.56-3.82 1.12 0 2.22.34 3.16.9l.96-2.66zm11.04 11.86v-2.56h-6.02v-2.44h4.84v-2.54h-4.84v-2.4h6.02v-2.56h-9.14v12.5h9.14zM32.248 1025h2.416l-.336-10h-3.552l-2.08 7.504-2.08-7.504h-3.6l-.352 10h2.368l.064-7.696 2.192 7.536h2.72l2.192-7.552.048 7.712zm14.336-5.04c0 3.168-2.288 5.28-5.264 5.28-2.96 0-5.216-1.84-5.216-5.216 0-3.168 2.272-5.264 5.248-5.264 2.976 0 5.232 1.824 5.232 5.2zm-2.56.064c0-1.92-1.008-3.216-2.704-3.216-1.696 0-2.656 1.28-2.656 3.152 0 1.92.992 3.232 2.704 3.232 1.68 0 2.656-1.296 2.656-3.168zm12.288-2.896V1015H47.4v2.128h3.184V1025h2.544v-7.872h3.184zM66.824 1025v-10H64.28v3.888h-4.016V1015H57.72v10h2.544v-3.968h4.016V1025h2.544zm9.392 0v-2.048H71.4V1021h3.872v-2.032H71.4v-1.92h4.816V1015h-7.312v10h7.312zm4.272-3.264V1025h-2.544v-10h4.016c2.656 0 4.048 1.232 4.048 3.168 0 1.344-.704 2.368-2.048 2.88l2.56 3.952h-2.864l-2-3.36-1.168.096zm-.048-1.888l1.28-.032c1.088-.08 1.68-.528 1.68-1.488 0-.88-.608-1.312-1.888-1.312H80.44v2.832zm6.72-4.096c1.104.464 1.44.784 1.44 1.216 0 .528-.72 1.072-1.6 1.68l1.088.96c1.392-.752 2.704-1.792 2.704-3.264 0-1.088-.8-2.032-1.92-2.032-.912 0-1.616.576-1.712 1.44zm8.32 7.392c-1.232 0-2.432-.4-3.424-.928l-.48 2.112c.928.528 2.368.912 3.856.912 2.624 0 4.096-1.344 4.096-3.248 0-1.904-1.6-2.608-3.136-3.024-1.2-.336-2.112-.592-2.112-1.248 0-.544.432-.848 1.312-.848.992 0 2.24.352 3.232.88l.496-2.096c-.96-.528-2.176-.88-3.744-.88-2.48 0-3.84 1.232-3.84 3.088 0 2 1.76 2.672 3.216 3.072 1.328.368 2.048.592 2.048 1.264 0 .608-.624.944-1.52.944zm-54.28 19.592V1046h-2.544v-10h4.016c2.656 0 4.048 1.232 4.048 3.168 0 1.344-.704 2.368-2.048 2.88l2.56 3.952h-2.864l-2-3.36-1.168.096zm-.048-1.888l1.28-.032c1.088-.08 1.68-.528 1.68-1.488 0-.88-.608-1.312-1.888-1.312h-1.072v2.832zm17.264.112c0 3.168-2.288 5.28-5.264 5.28-2.96 0-5.216-1.84-5.216-5.216 0-3.168 2.272-5.264 5.248-5.264 2.976 0 5.232 1.824 5.232 5.2zm-2.56.064c0-1.92-1.008-3.216-2.704-3.216-1.696 0-2.656 1.28-2.656 3.152 0 1.92.992 3.232 2.704 3.232 1.68 0 2.656-1.296 2.656-3.168zm14.288-.064c0 3.168-2.288 5.28-5.264 5.28-2.96 0-5.216-1.84-5.216-5.216 0-3.168 2.272-5.264 5.248-5.264 2.976 0 5.232 1.824 5.232 5.2zm-2.56.064c0-1.92-1.008-3.216-2.704-3.216-1.696 0-2.656 1.28-2.656 3.152 0 1.92.992 3.232 2.704 3.232 1.68 0 2.656-1.296 2.656-3.168zM81.152 1046h2.416l-.336-10H79.68l-2.08 7.504-2.08-7.504h-3.6l-.352 10h2.368l.064-7.696 2.192 7.536h2.72l2.192-7.552.048 7.712zM851.308 940.928c0 3.072-2.032 5.072-5.696 5.072h-3.584v-10h3.76c3.52 0 5.52 1.952 5.52 4.928zm-2.56.096c0-2.064-1.04-2.992-3.12-2.992h-1.056v5.936h1.184c1.84 0 2.992-.944 2.992-2.944zm6.736 4.976v-10h-2.544v10h2.544zm4.656-3.264V946h-2.544v-10h4.016c2.656 0 4.048 1.232 4.048 3.168 0 1.344-.704 2.368-2.048 2.88l2.56 3.952h-2.864l-2-3.36-1.168.096zm-.048-1.888l1.28-.032c1.088-.08 1.68-.528 1.68-1.488 0-.88-.608-1.312-1.888-1.312h-1.072v2.832zM874.78 946v-2.048h-4.816V942h3.872v-2.032h-3.872v-1.92h4.816V936h-7.312v10h7.312zm9.84-9.488a7.706 7.706 0 0 0-3.312-.752c-3.296 0-5.392 2.048-5.392 5.28 0 3.36 2.112 5.2 5.312 5.2 1.168 0 2.496-.288 3.28-.72l-.528-2.256a4.813 4.813 0 0 1-2.64.816c-1.808 0-2.864-1.2-2.864-3.104 0-1.888 1.12-3.056 2.848-3.056.896 0 1.776.272 2.528.72l.768-2.128zm9.584 1.616V936h-8.912v2.128h3.184V946h2.544v-7.872h3.184zm11.312 2.832c0 3.168-2.288 5.28-5.264 5.28-2.96 0-5.216-1.84-5.216-5.216 0-3.168 2.272-5.264 5.248-5.264 2.976 0 5.232 1.824 5.232 5.2zm-2.56.064c0-1.92-1.008-3.216-2.704-3.216-1.696 0-2.656 1.28-2.656 3.152 0 1.92.992 3.232 2.704 3.232 1.68 0 2.656-1.296 2.656-3.168zm6.768 1.712V946h-2.544v-10h4.016c2.656 0 4.048 1.232 4.048 3.168 0 1.344-.704 2.368-2.048 2.88l2.56 3.952h-2.864l-2-3.36-1.168.096zm-.048-1.888l1.28-.032c1.088-.08 1.68-.528 1.68-1.488 0-.88-.608-1.312-1.888-1.312h-1.072v2.832zm-46.352 21.112c0 3.168-2.288 5.28-5.264 5.28-2.96 0-5.216-1.84-5.216-5.216 0-3.168 2.272-5.264 5.248-5.264 2.976 0 5.232 1.824 5.232 5.2zm-2.56.064c0-1.92-1.008-3.216-2.704-3.216-1.696 0-2.656 1.28-2.656 3.152 0 1.92.992 3.232 2.704 3.232 1.68 0 2.656-1.296 2.656-3.168zm4.224 4.976h2.512v-3.76h3.696v-2.08H867.5v-2.064h4.64V957h-7.152v10zm8.656 0h2.512v-3.76h3.696v-2.08h-3.696v-2.064h4.64V957h-7.152v10zm11.216 0v-10h-2.544v10h2.544zm10.4-9.488a7.706 7.706 0 0 0-3.312-.752c-3.296 0-5.392 2.048-5.392 5.28 0 3.36 2.112 5.2 5.312 5.2 1.168 0 2.496-.288 3.28-.72l-.528-2.256a4.813 4.813 0 0 1-2.64.816c-1.808 0-2.864-1.2-2.864-3.104 0-1.888 1.12-3.056 2.848-3.056.896 0 1.776.272 2.528.72l.768-2.128zm8.832 9.488v-2.048h-4.816V963h3.872v-2.032h-3.872v-1.92h4.816V957h-7.312v10h7.312zM716.176 1035v-2.144h-4.96l4.976-6.16V1025h-8.096v2.128h4.896L708 1033.32v1.68h8.176zm10.4-4.08V1025h-2.528v5.904c0 1.552-.624 2.192-1.824 2.192-1.328 0-1.936-.784-1.936-2.288V1025h-2.528v6.144c0 2.816 1.792 4.096 4.4 4.096 2.688 0 4.416-1.424 4.416-4.32zm11.344 4.08h2.416l-.336-10h-3.552l-2.08 7.504-2.08-7.504h-3.6l-.352 10h2.368l.064-7.696 2.192 7.536h2.72l2.192-7.552.048 7.712zm10-10l3.488 10h-2.528l-.736-2.128h-3.712l-.72 2.128h-2.528l3.552-10h3.184zm-.336 5.888l-1.28-3.92-1.328 3.92h2.608zM623.352 756v-2.048h-4.816V752h3.872v-2.032h-3.872v-1.92h4.816V746h-7.312v10h7.312zm10.768-10h-2.656l-2.352 7.536-2.368-7.536h-2.624l3.376 10h3.184l3.44-10zm8.416 10v-2.048h-4.816V752h3.872v-2.032h-3.872v-1.92h4.816V746h-7.312v10h7.312zm8.64-3.504l-4.16-6.496h-2.752v10h2.384v-6.48l4.208 6.576h2.704V746h-2.384v6.496zm12.688-4.368V746h-8.912v2.128h3.184V756h2.544v-7.872h3.184zm8.384 6.016c-1.232 0-2.432-.4-3.424-.928l-.48 2.112c.928.528 2.368.912 3.856.912 2.624 0 4.096-1.344 4.096-3.248 0-1.904-1.6-2.608-3.136-3.024-1.2-.336-2.112-.592-2.112-1.248 0-.544.432-.848 1.312-.848.992 0 2.24.352 3.232.88l.496-2.096c-.96-.528-2.176-.88-3.744-.88-2.48 0-3.84 1.232-3.84 3.088 0 2 1.76 2.672 3.216 3.072 1.328.368 2.048.592 2.048 1.264 0 .608-.624.944-1.52.944zm13.664-4.672c0 2.336-1.584 3.616-4.448 3.616l-.976.016V756h-2.544v-10h3.696c2.8 0 4.272 1.408 4.272 3.472zm-2.528.064c0-1.008-.656-1.52-1.936-1.52h-1.024v3.12l1.024-.016c1.312-.016 1.936-.576 1.936-1.584zm9.104-3.536l3.488 10h-2.528l-.736-2.128H689l-.72 2.128h-2.528l3.552-10h3.184zm-.336 5.888l-1.28-3.92-1.328 3.92h2.608zm12.896-5.376a7.706 7.706 0 0 0-3.312-.752c-3.296 0-5.392 2.048-5.392 5.28 0 3.36 2.112 5.2 5.312 5.2 1.168 0 2.496-.288 3.28-.72l-.528-2.256a4.813 4.813 0 0 1-2.64.816c-1.808 0-2.864-1.2-2.864-3.104 0-1.888 1.12-3.056 2.848-3.056.896 0 1.776.272 2.528.72l.768-2.128zM713.88 756v-2.048h-4.816V752h3.872v-2.032h-3.872v-1.92h4.816V746h-7.312v10h7.312zM65.648 803.88l1.936 7.12h2.656l2.672-10h-2.608l-1.344 7.072L67.136 801h-2.912l-1.792 7.072L61.088 801h-2.72l2.672 10h2.64l1.968-7.12zm18.288 2.08c0 3.168-2.288 5.28-5.264 5.28-2.96 0-5.216-1.84-5.216-5.216 0-3.168 2.272-5.264 5.248-5.264 2.976 0 5.232 1.824 5.232 5.2zm-2.56.064c0-1.92-1.008-3.216-2.704-3.216-1.696 0-2.656 1.28-2.656 3.152 0 1.92.992 3.232 2.704 3.232 1.68 0 2.656-1.296 2.656-3.168zm6.768 1.712V811H85.6v-10h4.016c2.656 0 4.048 1.232 4.048 3.168 0 1.344-.704 2.368-2.048 2.88l2.56 3.952h-2.864l-2-3.36-1.168.096zm-.048-1.888l1.28-.032c1.088-.08 1.68-.528 1.68-1.488 0-.88-.608-1.312-1.888-1.312h-1.072v2.832zm9.92-.432V801h-2.544v10h2.544v-4.4h.016l3.296 4.4h3.04l-4.048-5.12 3.952-4.88h-2.912l-3.328 4.416h-.016zM109.12 811h2.512v-3.76h3.696v-2.08h-3.696v-2.064h4.64V801h-7.152v10zm15.392 0v-2.128h-4.192V801h-2.544v10h6.736zm10.992-5.04c0 3.168-2.288 5.28-5.264 5.28-2.96 0-5.216-1.84-5.216-5.216 0-3.168 2.272-5.264 5.248-5.264 2.976 0 5.232 1.824 5.232 5.2zm-2.56.064c0-1.92-1.008-3.216-2.704-3.216-1.696 0-2.656 1.28-2.656 3.152 0 1.92.992 3.232 2.704 3.232 1.68 0 2.656-1.296 2.656-3.168zm14.288-.064c0 3.168-2.288 5.28-5.264 5.28-2.96 0-5.216-1.84-5.216-5.216 0-3.168 2.272-5.264 5.248-5.264 2.976 0 5.232 1.824 5.232 5.2zm-2.56.064c0-1.92-1.008-3.216-2.704-3.216-1.696 0-2.656 1.28-2.656 3.152 0 1.92.992 3.232 2.704 3.232 1.68 0 2.656-1.296 2.656-3.168zm6.768 1.712V811h-2.544v-10h4.016c2.656 0 4.048 1.232 4.048 3.168 0 1.344-.704 2.368-2.048 2.88l2.56 3.952h-2.864l-2-3.36-1.168.096zm-.048-1.888l1.28-.032c1.088-.08 1.68-.528 1.68-1.488 0-.88-.608-1.312-1.888-1.312h-1.072v2.832zM370.648 373.88l1.936 7.12h2.656l2.672-10h-2.608l-1.344 7.072-1.824-7.072h-2.912l-1.792 7.072-1.344-7.072h-2.72l2.672 10h2.64l1.968-7.12zm18.288 2.08c0 3.168-2.288 5.28-5.264 5.28-2.96 0-5.216-1.84-5.216-5.216 0-3.168 2.272-5.264 5.248-5.264 2.976 0 5.232 1.824 5.232 5.2zm-2.56.064c0-1.92-1.008-3.216-2.704-3.216-1.696 0-2.656 1.28-2.656 3.152 0 1.92.992 3.232 2.704 3.232 1.68 0 2.656-1.296 2.656-3.168zm6.768 1.712V381H390.6v-10h4.016c2.656 0 4.048 1.232 4.048 3.168 0 1.344-.704 2.368-2.048 2.88l2.56 3.952h-2.864l-2-3.36-1.168.096zm-.048-1.888l1.28-.032c1.088-.08 1.68-.528 1.68-1.488 0-.88-.608-1.312-1.888-1.312h-1.072v2.832zm9.92-.432V371h-2.544v10h2.544v-4.4h.016l3.296 4.4h3.04l-4.048-5.12 3.952-4.88h-2.912l-3.328 4.416h-.016zM414.12 381h2.512v-3.76h3.696v-2.08h-3.696v-2.064h4.64V371h-7.152v10zm15.392 0v-2.128h-4.192V371h-2.544v10h6.736zm10.992-5.04c0 3.168-2.288 5.28-5.264 5.28-2.96 0-5.216-1.84-5.216-5.216 0-3.168 2.272-5.264 5.248-5.264 2.976 0 5.232 1.824 5.232 5.2zm-2.56.064c0-1.92-1.008-3.216-2.704-3.216-1.696 0-2.656 1.28-2.656 3.152 0 1.92.992 3.232 2.704 3.232 1.68 0 2.656-1.296 2.656-3.168zm14.288-.064c0 3.168-2.288 5.28-5.264 5.28-2.96 0-5.216-1.84-5.216-5.216 0-3.168 2.272-5.264 5.248-5.264 2.976 0 5.232 1.824 5.232 5.2zm-2.56.064c0-1.92-1.008-3.216-2.704-3.216-1.696 0-2.656 1.28-2.656 3.152 0 1.92.992 3.232 2.704 3.232 1.68 0 2.656-1.296 2.656-3.168zm6.768 1.712V381h-2.544v-10h4.016c2.656 0 4.048 1.232 4.048 3.168 0 1.344-.704 2.368-2.048 2.88l2.56 3.952h-2.864l-2-3.36-1.168.096zm-.048-1.888l1.28-.032c1.088-.08 1.68-.528 1.68-1.488 0-.88-.608-1.312-1.888-1.312h-1.072v2.832zM443.04 849h2.512v-3.76h3.696v-2.08h-3.696v-2.064h4.64V839h-7.152v10zm11.2-3.264V849h-2.544v-10h4.016c2.656 0 4.048 1.232 4.048 3.168 0 1.344-.704 2.368-2.048 2.88l2.56 3.952h-2.864l-2-3.36-1.168.096zm-.048-1.888l1.28-.032c1.088-.08 1.68-.528 1.68-1.488 0-.88-.608-1.312-1.888-1.312h-1.072v2.832zm17.264.112c0 3.168-2.288 5.28-5.264 5.28-2.96 0-5.216-1.84-5.216-5.216 0-3.168 2.272-5.264 5.248-5.264 2.976 0 5.232 1.824 5.232 5.2zm-2.56.064c0-1.92-1.008-3.216-2.704-3.216-1.696 0-2.656 1.28-2.656 3.152 0 1.92.992 3.232 2.704 3.232 1.68 0 2.656-1.296 2.656-3.168zm11.136 1.472l-4.16-6.496h-2.752v10h2.384v-6.48l4.208 6.576h2.704V839h-2.384v6.496zm12.688-4.368V839h-8.912v2.128h3.184V849h2.544v-7.872h3.184zm14.336 2.8c0 3.072-2.032 5.072-5.696 5.072h-3.584v-10h3.76c3.52 0 5.52 1.952 5.52 4.928zm-2.56.096c0-2.064-1.04-2.992-3.12-2.992h-1.056v5.936h1.184c1.84 0 2.992-.944 2.992-2.944zM515.984 849v-2.048h-4.816V845h3.872v-2.032h-3.872v-1.92h4.816V839h-7.312v10h7.312zm5.056-1.856c-1.232 0-2.432-.4-3.424-.928l-.48 2.112c.928.528 2.368.912 3.856.912 2.624 0 4.096-1.344 4.096-3.248 0-1.904-1.6-2.608-3.136-3.024-1.2-.336-2.112-.592-2.112-1.248 0-.544.432-.848 1.312-.848.992 0 2.24.352 3.232.88l.496-2.096c-.96-.528-2.176-.88-3.744-.88-2.48 0-3.84 1.232-3.84 3.088 0 2 1.76 2.672 3.216 3.072 1.328.368 2.048.592 2.048 1.264 0 .608-.624.944-1.52.944zm8.24-3.728V839h-2.544v10h2.544v-4.4h.016l3.296 4.4h3.04l-4.048-5.12 3.952-4.88h-2.912l-3.328 4.416h-.016zM303.584 751.736V755h-2.544v-10h4.016c2.656 0 4.048 1.232 4.048 3.168 0 1.344-.704 2.368-2.048 2.88l2.56 3.952h-2.864l-2-3.36-1.168.096zm-.048-1.888l1.28-.032c1.088-.08 1.68-.528 1.68-1.488 0-.88-.608-1.312-1.888-1.312h-1.072v2.832zM318.224 755v-2.048h-4.816V751h3.872v-2.032h-3.872v-1.92h4.816V745h-7.312v10h7.312zm5.056-1.856c-1.232 0-2.432-.4-3.424-.928l-.48 2.112c.928.528 2.368.912 3.856.912 2.624 0 4.096-1.344 4.096-3.248 0-1.904-1.6-2.608-3.136-3.024-1.2-.336-2.112-.592-2.112-1.248 0-.544.432-.848 1.312-.848.992 0 2.24.352 3.232.88l.496-2.096c-.96-.528-2.176-.88-3.744-.88-2.48 0-3.84 1.232-3.84 3.088 0 2 1.76 2.672 3.216 3.072 1.328.368 2.048.592 2.048 1.264 0 .608-.624.944-1.52.944zm13.664-6.016V745h-8.912v2.128h3.184V755h2.544v-7.872h3.184zm3.952 4.608V755h-2.544v-10h4.016c2.656 0 4.048 1.232 4.048 3.168 0 1.344-.704 2.368-2.048 2.88l2.56 3.952h-2.864l-2-3.36-1.168.096zm-.048-1.888l1.28-.032c1.088-.08 1.68-.528 1.68-1.488 0-.88-.608-1.312-1.888-1.312h-1.072v2.832zm17.264.112c0 3.168-2.288 5.28-5.264 5.28-2.96 0-5.216-1.84-5.216-5.216 0-3.168 2.272-5.264 5.248-5.264 2.976 0 5.232 1.824 5.232 5.2zm-2.56.064c0-1.92-1.008-3.216-2.704-3.216-1.696 0-2.656 1.28-2.656 3.152 0 1.92.992 3.232 2.704 3.232 1.68 0 2.656-1.296 2.656-3.168zm14.288-.064c0 3.168-2.288 5.28-5.264 5.28-2.96 0-5.216-1.84-5.216-5.216 0-3.168 2.272-5.264 5.248-5.264 2.976 0 5.232 1.824 5.232 5.2zm-2.56.064c0-1.92-1.008-3.216-2.704-3.216-1.696 0-2.656 1.28-2.656 3.152 0 1.92.992 3.232 2.704 3.232 1.68 0 2.656-1.296 2.656-3.168zM380.848 755h2.416l-.336-10h-3.552l-2.08 7.504-2.08-7.504h-3.6l-.352 10h2.368l.064-7.696 2.192 7.536h2.72l2.192-7.552.048 7.712zM437.584 693.416V689h-2.544v10h2.544v-4.4h.016l3.296 4.4h3.04l-4.048-5.12 3.952-4.88h-2.912l-3.328 4.416h-.016zM447.6 699v-10h-2.544v10h2.544zm10.336-7.872V689h-8.912v2.128h3.184V699h2.544v-7.872h3.184zm9.536-1.616a7.706 7.706 0 0 0-3.312-.752c-3.296 0-5.392 2.048-5.392 5.28 0 3.36 2.112 5.2 5.312 5.2 1.168 0 2.496-.288 3.28-.72l-.528-2.256a4.813 4.813 0 0 1-2.64.816c-1.808 0-2.864-1.2-2.864-3.104 0-1.888 1.12-3.056 2.848-3.056.896 0 1.776.272 2.528.72l.768-2.128zM478.096 699v-10h-2.544v3.888h-4.016V689h-2.544v10h2.544v-3.968h4.016V699h2.544zm9.392 0v-2.048h-4.816V695h3.872v-2.032h-3.872v-1.92h4.816V689h-7.312v10h7.312zm8.64-3.504l-4.16-6.496h-2.752v10h2.384v-6.48l4.208 6.576h2.704V689h-2.384v6.496zm13.84-6.496l3.488 10h-2.528l-.736-2.128h-3.712l-.72 2.128h-2.528l3.552-10h3.184zm-.336 5.888l-1.28-3.92-1.328 3.92h2.608zm7.44.848V699h-2.544v-10h4.016c2.656 0 4.048 1.232 4.048 3.168 0 1.344-.704 2.368-2.048 2.88l2.56 3.952h-2.864l-2-3.36-1.168.096zm-.048-1.888l1.28-.032c1.088-.08 1.68-.528 1.68-1.488 0-.88-.608-1.312-1.888-1.312h-1.072v2.832zM531.712 699v-2.048h-4.816V695h3.872v-2.032h-3.872v-1.92h4.816V689H524.4v10h7.312zm7.456-10l3.488 10h-2.528l-.736-2.128h-3.712l-.72 2.128h-2.528l3.552-10h3.184zm-.336 5.888l-1.28-3.92-1.328 3.92h2.608zM194.78 535.928c0 3.072-2.032 5.072-5.696 5.072H185.5v-10h3.76c3.52 0 5.52 1.952 5.52 4.928zm-2.56.096c0-2.064-1.04-2.992-3.12-2.992h-1.056v5.936h1.184c1.84 0 2.992-.944 2.992-2.944zm7.68-1.168c.512-.336.912-.72.912-1.36 0-.672-.48-1.088-1.136-1.088-.64 0-1.072.48-1.072 1.04 0 .672.528 1.072 1.296 1.408zm1.408 3.312c-.752-.8-1.552-1.408-2.256-1.68-.656.384-1.104.928-1.104 1.536 0 .832.64 1.344 1.44 1.344.768 0 1.392-.464 1.92-1.2zm.96 1.232c-.992 1.232-2.208 1.84-3.376 1.84-1.888 0-3.216-1.104-3.216-2.736 0-1.392 1.104-2.368 2.272-2.656-.848-.464-1.488-1.264-1.488-2.288 0-1.36 1.152-2.784 3.28-2.784 1.856 0 3.184.976 3.184 2.432 0 1.12-.928 1.904-1.92 2.208.368.176.928.64 1.376 1.056l.928-1.712h2.608l-2.288 2.992 2.4 2.992-2.512.448-1.248-1.792zm4.656 1.6h2.512v-3.76h3.696v-2.08h-3.696v-2.064h4.64V531h-7.152v10zm-26.4 19.144c-1.232 0-2.432-.4-3.424-.928l-.48 2.112c.928.528 2.368.912 3.856.912 2.624 0 4.096-1.344 4.096-3.248 0-1.904-1.6-2.608-3.136-3.024-1.2-.336-2.112-.592-2.112-1.248 0-.544.432-.848 1.312-.848.992 0 2.24.352 3.232.88l.496-2.096c-.96-.528-2.176-.88-3.744-.88-2.48 0-3.84 1.232-3.84 3.088 0 2 1.76 2.672 3.216 3.072 1.328.368 2.048.592 2.048 1.264 0 .608-.624.944-1.52.944zm13.664-4.672c0 2.336-1.584 3.616-4.448 3.616l-.976.016V562h-2.544v-10h3.696c2.8 0 4.272 1.408 4.272 3.472zm-2.528.064c0-1.008-.656-1.52-1.936-1.52H188.7v3.12l1.024-.016c1.312-.016 1.936-.576 1.936-1.584zm9.104-3.536l3.488 10h-2.528l-.736-2.128h-3.712l-.72 2.128h-2.528l3.552-10h3.184zm-.336 5.888l-1.28-3.92-1.328 3.92h2.608zm12.896-5.376a7.706 7.706 0 0 0-3.312-.752c-3.296 0-5.392 2.048-5.392 5.28 0 3.36 2.112 5.2 5.312 5.2 1.168 0 2.496-.288 3.28-.72l-.528-2.256a4.813 4.813 0 0 1-2.64.816c-1.808 0-2.864-1.2-2.864-3.104 0-1.888 1.12-3.056 2.848-3.056.896 0 1.776.272 2.528.72l.768-2.128zm8.832 9.488v-2.048h-4.816V558h3.872v-2.032h-3.872v-1.92h4.816V552h-7.312v10h7.312zM623.008 552.472c0 2.336-1.584 3.616-4.448 3.616l-.976.016V559h-2.544v-10h3.696c2.8 0 4.272 1.408 4.272 3.472zm-2.528.064c0-1.008-.656-1.52-1.936-1.52h-1.024v3.12l1.024-.016c1.312-.016 1.936-.576 1.936-1.584zM633.648 559v-10h-2.544v3.888h-4.016V549h-2.544v10h2.544v-3.968h4.016V559h2.544zm12.144-5.04c0 3.168-2.288 5.28-5.264 5.28-2.96 0-5.216-1.84-5.216-5.216 0-3.168 2.272-5.264 5.248-5.264 2.976 0 5.232 1.824 5.232 5.2zm-2.56.064c0-1.92-1.008-3.216-2.704-3.216-1.696 0-2.656 1.28-2.656 3.152 0 1.92.992 3.232 2.704 3.232 1.68 0 2.656-1.296 2.656-3.168zm11.136 1.472l-4.16-6.496h-2.752v10h2.384v-6.48l4.208 6.576h2.704V549h-2.384v6.496zM666.144 559v-2.048h-4.816V555h3.872v-2.032h-3.872v-1.92h4.816V549h-7.312v10h7.312zm-44.848 15.768c1.28.24 2.16 1.088 2.16 2.32 0 1.6-.848 2.912-4.048 2.912h-4.368v-10h4.336c2.976 0 3.776 1.136 3.776 2.608 0 1.136-.704 1.84-1.856 2.16zm-.688-1.744c0-.736-.512-1.12-1.472-1.12h-1.632v2.304h1.504c1.056 0 1.6-.432 1.6-1.184zm.288 3.92c0-.848-.688-1.152-1.76-1.152h-1.632v2.304h1.712c1.152 0 1.68-.368 1.68-1.152zm14.128-1.984c0 3.168-2.288 5.28-5.264 5.28-2.96 0-5.216-1.84-5.216-5.216 0-3.168 2.272-5.264 5.248-5.264 2.976 0 5.232 1.824 5.232 5.2zm-2.56.064c0-1.92-1.008-3.216-2.704-3.216-1.696 0-2.656 1.28-2.656 3.152 0 1.92.992 3.232 2.704 3.232 1.68 0 2.656-1.296 2.656-3.168zm14.288-.064c0 3.168-2.288 5.28-5.264 5.28-2.96 0-5.216-1.84-5.216-5.216 0-3.168 2.272-5.264 5.248-5.264 2.976 0 5.232 1.824 5.232 5.2zm-2.56.064c0-1.92-1.008-3.216-2.704-3.216-1.696 0-2.656 1.28-2.656 3.152 0 1.92.992 3.232 2.704 3.232 1.68 0 2.656-1.296 2.656-3.168zm12.288-2.896V570h-8.912v2.128h3.184V580h2.544v-7.872h3.184zM666.992 580v-10h-2.544v3.888h-4.016V570h-2.544v10h2.544v-3.968h4.016V580h2.544zM856.968 832.472c0 2.336-1.584 3.616-4.448 3.616l-.976.016V839H849v-10h3.696c2.8 0 4.272 1.408 4.272 3.472zm-2.528.064c0-1.008-.656-1.52-1.936-1.52h-1.024v3.12l1.024-.016c1.312-.016 1.936-.576 1.936-1.584zm6.624 6.464v-10h-2.544v10h2.544zm9.024-3.504l-4.16-6.496h-2.752v10h2.384v-6.48l4.208 6.576h2.704V829h-2.384v6.496zm13.392 2.816v-4.944h-4.768v2.016h2.464v1.472a4.384 4.384 0 0 1-1.6.304c-1.904 0-2.912-1.184-2.912-3.184 0-1.856 1.152-3.056 2.944-3.056.96 0 1.936.288 2.88.832l.8-2.128c-.96-.576-2.48-.864-3.76-.864-3.28 0-5.392 2-5.392 5.28 0 3.296 2.176 5.2 5.376 5.2 1.456 0 2.88-.336 3.968-.928zm13.456-5.84c0 2.336-1.584 3.616-4.448 3.616l-.976.016V839h-2.544v-10h3.696c2.8 0 4.272 1.408 4.272 3.472zm-2.528.064c0-1.008-.656-1.52-1.936-1.52h-1.024v3.12l1.024-.016c1.312-.016 1.936-.576 1.936-1.584zm14.128 1.424c0 3.168-2.288 5.28-5.264 5.28-2.96 0-5.216-1.84-5.216-5.216 0-3.168 2.272-5.264 5.248-5.264 2.976 0 5.232 1.824 5.232 5.2zm-2.56.064c0-1.92-1.008-3.216-2.704-3.216-1.696 0-2.656 1.28-2.656 3.152 0 1.92.992 3.232 2.704 3.232 1.68 0 2.656-1.296 2.656-3.168zm11.136 1.472l-4.16-6.496H910.2v10h2.384v-6.48l4.208 6.576h2.704V829h-2.384v6.496zm13.392 2.816v-4.944h-4.768v2.016h2.464v1.472a4.384 4.384 0 0 1-1.6.304c-1.904 0-2.912-1.184-2.912-3.184 0-1.856 1.152-3.056 2.944-3.056.96 0 1.936.288 2.88.832l.8-2.128c-.96-.576-2.48-.864-3.76-.864-3.28 0-5.392 2-5.392 5.28 0 3.296 2.176 5.2 5.376 5.2 1.456 0 2.88-.336 3.968-.928zm-54.68 13.816h-3.184V860h-2.544v-7.872h-3.184V850h8.912v2.128zm6.08-2.128l3.488 10h-2.528l-.736-2.128h-3.712l-.72 2.128h-2.528l3.552-10h3.184zm-.336 5.888l-1.28-3.92-1.328 3.92h2.608zm11.152-1.12c1.28.24 2.16 1.088 2.16 2.32 0 1.6-.848 2.912-4.048 2.912h-4.368v-10h4.336c2.976 0 3.776 1.136 3.776 2.608 0 1.136-.704 1.84-1.856 2.16zm-.688-1.744c0-.736-.512-1.12-1.472-1.12h-1.632v2.304h1.504c1.056 0 1.6-.432 1.6-1.184zm.288 3.92c0-.848-.688-1.152-1.76-1.152h-1.632v2.304h1.712c1.152 0 1.68-.368 1.68-1.152zm10.8 3.056v-2.128h-4.192V850h-2.544v10h6.736zm8.896 0v-2.048H907.2V856h3.872v-2.032H907.2v-1.92h4.816V850h-7.312v10h7.312zM616.32 214.928c0 3.072-2.032 5.072-5.696 5.072h-3.584v-10h3.76c3.52 0 5.52 1.952 5.52 4.928zm-2.56.096c0-2.064-1.04-2.992-3.12-2.992h-1.056v5.936h1.184c1.84 0 2.992-.944 2.992-2.944zM625.248 220v-2.048h-4.816V216h3.872v-2.032h-3.872v-1.92h4.816V210h-7.312v10h7.312zm9.84-9.488a7.706 7.706 0 0 0-3.312-.752c-3.296 0-5.392 2.048-5.392 5.28 0 3.36 2.112 5.2 5.312 5.2 1.168 0 2.496-.288 3.28-.72l-.528-2.256a4.813 4.813 0 0 1-2.64.816c-1.808 0-2.864-1.2-2.864-3.104 0-1.888 1.12-3.056 2.848-3.056.896 0 1.776.272 2.528.72l.768-2.128zm4.064 3.904V210h-2.544v10h2.544v-4.4h.016l3.296 4.4h3.04l-4.048-5.12 3.952-4.88h-2.912l-3.328 4.416h-.016zm22.992 9.824l1.296-1.68c-1.904-1.168-3.696-3.408-3.696-6.32 0-2.912 1.792-5.152 3.696-6.32l-1.296-1.68c-2.256 1.2-4.736 4.064-4.736 8 0 3.952 2.48 6.8 4.736 8zm12.272-9.28c0 3.168-2.288 5.28-5.264 5.28-2.96 0-5.216-1.84-5.216-5.216 0-3.168 2.272-5.264 5.248-5.264 2.976 0 5.232 1.824 5.232 5.2zm-2.56.064c0-1.92-1.008-3.216-2.704-3.216-1.696 0-2.656 1.28-2.656 3.152 0 1.92.992 3.232 2.704 3.232 1.68 0 2.656-1.296 2.656-3.168zm12.976.896V210h-2.528v5.904c0 1.552-.624 2.192-1.824 2.192-1.328 0-1.936-.784-1.936-2.288V210h-2.528v6.144c0 2.816 1.792 4.096 4.4 4.096 2.688 0 4.416-1.424 4.416-4.32zm10.224-3.792V210h-8.912v2.128h3.184V220h2.544v-7.872h3.184zm4.736 6.016c-1.232 0-2.432-.4-3.424-.928l-.48 2.112c.928.528 2.368.912 3.856.912 2.624 0 4.096-1.344 4.096-3.248 0-1.904-1.6-2.608-3.136-3.024-1.2-.336-2.112-.592-2.112-1.248 0-.544.432-.848 1.312-.848.992 0 2.24.352 3.232.88l.496-2.096c-.96-.528-2.176-.88-3.744-.88-2.48 0-3.84 1.232-3.84 3.088 0 2 1.76 2.672 3.216 3.072 1.328.368 2.048.592 2.048 1.264 0 .608-.624.944-1.52.944zm8.256 1.856v-10h-2.544v10h2.544zm11.392-5.072c0 3.072-2.032 5.072-5.696 5.072h-3.584v-10h3.76c3.52 0 5.52 1.952 5.52 4.928zm-2.56.096c0-2.064-1.04-2.992-3.12-2.992h-1.056v5.936h1.184c1.84 0 2.992-.944 2.992-2.944zM728.368 220v-2.048h-4.816V216h3.872v-2.032h-3.872v-1.92h4.816V210h-7.312v10h7.312zm1.856 4.24c2.272-1.2 4.752-4.048 4.752-8 0-3.936-2.48-6.8-4.752-8l-1.28 1.68c1.888 1.168 3.696 3.408 3.696 6.32 0 2.912-1.808 5.152-3.696 6.32l1.28 1.68zM29.264 470.128V468h-8.912v2.128h3.184V478h2.544v-7.872h3.184zm11.312 2.832c0 3.168-2.288 5.28-5.264 5.28-2.96 0-5.216-1.84-5.216-5.216 0-3.168 2.272-5.264 5.248-5.264 2.976 0 5.232 1.824 5.232 5.2zm-2.56.064c0-1.92-1.008-3.216-2.704-3.216-1.696 0-2.656 1.28-2.656 3.152 0 1.92.992 3.232 2.704 3.232 1.68 0 2.656-1.296 2.656-3.168zm12.192-1.552c0 2.336-1.584 3.616-4.448 3.616l-.976.016V478H42.24v-10h3.696c2.8 0 4.272 1.408 4.272 3.472zm-2.528.064c0-1.008-.656-1.52-1.936-1.52H44.72v3.12l1.024-.016c1.312-.016 1.936-.576 1.936-1.584zM56.784 468l3.488 10h-2.528l-.736-2.128h-3.712l-.72 2.128h-2.528l3.552-10h3.184zm-.336 5.888l-1.28-3.92-1.328 3.92h2.608zm11.808.608L64.096 468h-2.752v10h2.384v-6.48l4.208 6.576h2.704V468h-2.384v6.496zm13.392 2.816v-4.944H76.88v2.016h2.464v1.472a4.384 4.384 0 0 1-1.6.304c-1.904 0-2.912-1.184-2.912-3.184 0-1.856 1.152-3.056 2.944-3.056.96 0 1.936.288 2.88.832l.8-2.128c-.96-.576-2.48-.864-3.76-.864-3.28 0-5.392 2-5.392 5.28 0 3.296 2.176 5.2 5.376 5.2 1.456 0 2.88-.336 3.968-.928zM89.376 468l3.488 10h-2.528l-.736-2.128h-3.712l-.72 2.128H82.64l3.552-10h3.184zm-.336 5.888l-1.28-3.92-1.328 3.92h2.608zM342.736 49.24l3.488 10h-2.528l-.736-2.128h-3.712l-.72 2.128H336l3.552-10h3.184zm-.336 5.888l-1.28-3.92-1.328 3.92h2.608zm14.176-.96c0 3.072-2.032 5.072-5.696 5.072h-3.584v-10h3.76c3.52 0 5.52 1.952 5.52 4.928zm-2.56.096c0-2.064-1.04-2.992-3.12-2.992h-1.056v5.936h1.184c1.84 0 2.992-.944 2.992-2.944zm17.888-.064c0 3.168-2.288 5.28-5.264 5.28-2.96 0-5.216-1.84-5.216-5.216 0-3.168 2.272-5.264 5.248-5.264 2.976 0 5.232 1.824 5.232 5.2zm-2.56.064c0-1.92-1.008-3.216-2.704-3.216-1.696 0-2.656 1.28-2.656 3.152 0 1.92.992 3.232 2.704 3.232 1.68 0 2.656-1.296 2.656-3.168zm4.224 4.976h2.512v-3.76h3.696V53.4h-3.696v-2.064h4.64V49.24h-7.152v10zm8.656 0h2.512v-3.76h3.696V53.4h-3.696v-2.064h4.64V49.24h-7.152v10zm11.216 0v-10h-2.544v10h2.544zm10.4-9.488a7.706 7.706 0 0 0-3.312-.752c-3.296 0-5.392 2.048-5.392 5.28 0 3.36 2.112 5.2 5.312 5.2 1.168 0 2.496-.288 3.28-.72l-.528-2.256a4.813 4.813 0 0 1-2.64.816c-1.808 0-2.864-1.2-2.864-3.104 0-1.888 1.12-3.056 2.848-3.056.896 0 1.776.272 2.528.72l.768-2.128zm8.832 9.488v-2.048h-4.816V55.24h3.872v-2.032h-3.872v-1.92h4.816V49.24h-7.312v10h7.312zM136.648 51.88l1.936 7.12h2.656l2.672-10h-2.608l-1.344 7.072L138.136 49h-2.912l-1.792 7.072L132.088 49h-2.72l2.672 10h2.64l1.968-7.12zM152.632 59v-2.048h-4.816V55h3.872v-2.032h-3.872v-1.92h4.816V49h-7.312v10h7.312zm11.008-5.072c0 3.072-2.032 5.072-5.696 5.072h-3.584V49h3.76c3.52 0 5.52 1.952 5.52 4.928zm-2.56.096c0-2.064-1.04-2.992-3.12-2.992h-1.056v5.936h1.184c1.84 0 2.992-.944 2.992-2.944zm13.104 4.288v-4.944h-4.768v2.016h2.464v1.472a4.384 4.384 0 0 1-1.6.304c-1.904 0-2.912-1.184-2.912-3.184 0-1.856 1.152-3.056 2.944-3.056.96 0 1.936.288 2.88.832l.8-2.128c-.96-.576-2.48-.864-3.76-.864-3.28 0-5.392 2-5.392 5.28 0 3.296 2.176 5.2 5.376 5.2 1.456 0 2.88-.336 3.968-.928zm9.152.688v-2.048h-4.816V55h3.872v-2.032h-3.872v-1.92h4.816V49h-7.312v10h7.312zM26.952 55.496L22.792 49H20.04v10h2.384v-6.48l4.208 6.576h2.704V49h-2.384v6.496zM38.728 59v-2.048h-4.816V55h3.872v-2.032h-3.872v-1.92h4.816V49h-7.312v10h7.312zm8.336-7.12L49 59h2.656l2.672-10H51.72l-1.344 7.072L48.552 49H45.64l-1.792 7.072L42.504 49h-2.72l2.672 10h2.64l1.968-7.12zm16.64.592c0 2.336-1.584 3.616-4.448 3.616l-.976.016V59h-2.544V49h3.696c2.8 0 4.272 1.408 4.272 3.472zm-2.528.064c0-1.008-.656-1.52-1.936-1.52h-1.024v3.12l1.024-.016c1.312-.016 1.936-.576 1.936-1.584zm14.128 1.424c0 3.168-2.288 5.28-5.264 5.28-2.96 0-5.216-1.84-5.216-5.216 0-3.168 2.272-5.264 5.248-5.264 2.976 0 5.232 1.824 5.232 5.2zm-2.56.064c0-1.92-1.008-3.216-2.704-3.216-1.696 0-2.656 1.28-2.656 3.152 0 1.92.992 3.232 2.704 3.232 1.68 0 2.656-1.296 2.656-3.168zm6.768 1.712V59h-2.544V49h4.016c2.656 0 4.048 1.232 4.048 3.168 0 1.344-.704 2.368-2.048 2.88L85.544 59H82.68l-2-3.36-1.168.096zm-.048-1.888l1.28-.032c1.088-.08 1.68-.528 1.68-1.488 0-.88-.608-1.312-1.888-1.312h-1.072v2.832zm15.152-2.72V49h-8.912v2.128h3.184V59h2.544v-7.872h3.184zM13.296 168.768c1.28.24 2.16 1.088 2.16 2.32 0 1.6-.848 2.912-4.048 2.912H7.04v-10h4.336c2.976 0 3.776 1.136 3.776 2.608 0 1.136-.704 1.84-1.856 2.16zm-.688-1.744c0-.736-.512-1.12-1.472-1.12H9.504v2.304h1.504c1.056 0 1.6-.432 1.6-1.184zm.288 3.92c0-.848-.688-1.152-1.76-1.152H9.504v2.304h1.712c1.152 0 1.68-.368 1.68-1.152zm6.608-.208V174H16.96v-10h4.016c2.656 0 4.048 1.232 4.048 3.168 0 1.344-.704 2.368-2.048 2.88l2.56 3.952h-2.864l-2-3.36-1.168.096zm-.048-1.888l1.28-.032c1.088-.08 1.68-.528 1.68-1.488 0-.88-.608-1.312-1.888-1.312h-1.072v2.832zM34.144 174v-2.048h-4.816V170H33.2v-2.032h-3.872v-1.92h4.816V164h-7.312v10h7.312zm7.456-10l3.488 10H42.56l-.736-2.128h-3.712l-.72 2.128h-2.528l3.552-10H41.6zm-.336 5.888l-1.28-3.92-1.328 3.92h2.608zm7.44-1.472V164H46.16v10h2.544v-4.4h.016l3.296 4.4h3.04l-4.048-5.12L54.96 164h-2.912l-3.328 4.416h-.016zm13.744-1.536L60.48 174h-2.64l-2.672-10h2.72l1.344 7.072L61.024 164h2.912l1.824 7.072L67.104 164h2.608l-2.672 10h-2.656l-1.936-7.12zM75.984 164l3.488 10h-2.528l-.736-2.128h-3.712l-.72 2.128h-2.528l3.552-10h3.184zm-.336 5.888l-1.28-3.92-1.328 3.92h2.608zm12.064-3.76h-3.184V174h-2.544v-7.872H78.8V164h8.912v2.128zm8.72 7.872v-2.048h-4.816V170h3.872v-2.032h-3.872v-1.92h4.816V164H89.12v10h7.312zm4.272-3.264V174H98.16v-10h4.016c2.656 0 4.048 1.232 4.048 3.168 0 1.344-.704 2.368-2.048 2.88l2.56 3.952h-2.864l-2-3.36-1.168.096zm-.048-1.888l1.28-.032c1.088-.08 1.68-.528 1.68-1.488 0-.88-.608-1.312-1.888-1.312h-1.072v2.832zM42.368 345.144c-1.232 0-2.432-.4-3.424-.928l-.48 2.112c.928.528 2.368.912 3.856.912 2.624 0 4.096-1.344 4.096-3.248 0-1.904-1.6-2.608-3.136-3.024-1.2-.336-2.112-.592-2.112-1.248 0-.544.432-.848 1.312-.848.992 0 2.24.352 3.232.88l.496-2.096c-.96-.528-2.176-.88-3.744-.88-2.48 0-3.84 1.232-3.84 3.088 0 2 1.76 2.672 3.216 3.072 1.328.368 2.048.592 2.048 1.264 0 .608-.624.944-1.52.944zM55.376 347v-2.048H50.56V343h3.872v-2.032H50.56v-1.92h4.816V337h-7.312v10h7.312zm7.456-10l3.488 10h-2.528l-.736-2.128h-3.712l-.72 2.128h-2.528l3.552-10h3.184zm-.336 5.888l-1.28-3.92-1.328 3.92h2.608zM74.128 347v-2.128h-4.192V337h-2.544v10h6.736z"/>
        <g fill="#525252" fill-rule="nonzero">
            <path d="M635.582 991.683h11.098v17.077h-11.098zM626.315 991.683h-3.171v10.672l-3.961-3.204v4.271l5.546 5.339 5.552-5.339v-4.27l-3.966 3.203zM614.918 999.91l-.182-.214-.235-.16-.272-.096-.294-.016h-1.575v-3.16l-.027-.198-.095-.235-.156-.203-.197-.15-.283-.026-.267-.054-.256-.069-.251-.096-.245-.112-.23-.139-.219-.155-.197-.17-.187-.187-.166-.209-.144-.213-.128-.23-.058-.08-.102-.005h-5.099l-.123.016-.186.08-2.53 2.184-.145.154-.106.187-.059.198-.016.213.037.209.08.192.129.17.16.145.192.106.208.059.219.016.219-.027 2.402-1.991h1.831l-3.71 3.497v3.902h-3.679l-.26.064-.236.123-.203.17-.155.214-.09.24-.032.257.032.256.09.24.155.214.203.17.235.124.261.064h5.142l.218-.049.268-.122.224-.182.181-.224.117-.256.049-.256v-2.862l2.749 2.723v4.43l.059.321.138.294.214.255.272.193.315.118.336.042.337-.042.314-.118.273-.193.209-.255.144-.294.053-.32V1003l-.102-.176-.112-.064-2.829-2.493 2.563-2.402v2.936l.09.22.128.18.171.144.209.097.218.048.171-.006 2.84-.032.294-.021.272-.091.235-.16.182-.213.116-.257.038-.272-.038-.277z"/>
            <path d="M610.16 994.358l.423.341.496.225.539.09.55-.043.512-.175.454-.3.353-.4.234-.475.102-.518-.048-.523-.187-.49-.315-.433-.416-.337-.497-.224-.545-.096-.544.048-.518.176-.453.3-.353.4-.235.475-.096.512.043.523.187.497z"/>
        </g>
        <g fill="#525252" fill-rule="nonzero" transform="translate(328 774)">
            <path d="M26.067 5h-5.136c-1.593.005-2.892 1.244-2.931 2.794V14.293c.03.473.433.842.92.842.487 0 .89-.369.92-.842V8.402h.628v16.33c.002.7.584 1.266 1.302 1.268.718-.002 1.3-.568 1.302-1.268v-9.43h.854v9.43c.002.7.584 1.266 1.302 1.268.718-.002 1.3-.568 1.302-1.268V8.402h.628v6.024c-.021.333.15.65.443.824a.943.943 0 0 0 .955 0 .891.891 0 0 0 .442-.824V7.853C28.992 6.28 27.684 5.006 26.068 5z"/>
            <ellipse cx="23.5" cy="2.5" rx="2.5" ry="2.5"/>
            <path d="M12.955 13.958s-1.763-5.369-2.16-6.366C10.306 6.379 9.07 6 7.855 6H5.143c-1.208 0-2.476.513-2.888 1.521-.367.928-2.204 6.416-2.204 6.416a.948.948 0 0 0 .066.763c.129.235.351.411.617.488.543.158 1.117-.133 1.286-.65l1.8-5.597h.438l-3.123 9.816h2.829v7.217c.002.566.481 1.024 1.073 1.026.592-.002 1.07-.46 1.073-1.026v-7.217h.735v7.217c.002.566.481 1.024 1.073 1.026.591-.002 1.07-.46 1.073-1.026v-7.217h2.829L8.737 8.941h.448l1.8 5.597c.17.517.744.808 1.287.65.543-.16.848-.71.683-1.23z"/>
            <circle cx="6.5" cy="2.5" r="2.5"/>
            <path d="M14 0h2v27h-2z"/>
        </g>
        <path fill="#525252" d="M547.352 958.867v-2.048h-4.816v-1.952h3.872v-2.032h-3.872v-1.92h4.816v-2.048h-7.312v10h7.312zm11.072 0h2.416l-.336-10h-3.552l-2.08 7.504-2.08-7.504h-3.6l-.352 10h2.368l.064-7.696 2.192 7.536h2.72l2.192-7.552.048 7.712zm11.584 0v-2.048h-4.816v-1.952h3.872v-2.032h-3.872v-1.92h4.816v-2.048h-7.312v10h7.312zm4.272-3.264v3.264h-2.544v-10h4.016c2.656 0 4.048 1.232 4.048 3.168 0 1.344-.704 2.368-2.048 2.88l2.56 3.952h-2.864l-2-3.36-1.168.096zm-.048-1.888l1.28-.032c1.088-.08 1.68-.528 1.68-1.488 0-.88-.608-1.312-1.888-1.312h-1.072v2.832zm16.128 4.464v-4.944h-4.768v2.016h2.464v1.472a4.384 4.384 0 0 1-1.6.304c-1.904 0-2.912-1.184-2.912-3.184 0-1.856 1.152-3.056 2.944-3.056.96 0 1.936.288 2.88.832l.8-2.128c-.96-.576-2.48-.864-3.76-.864-3.28 0-5.392 2-5.392 5.28 0 3.296 2.176 5.2 5.376 5.2 1.456 0 2.88-.336 3.968-.928zm9.152.688v-2.048h-4.816v-1.952h3.872v-2.032h-3.872v-1.92h4.816v-2.048H592.2v10h7.312zm8.64-3.504l-4.16-6.496h-2.752v10h2.384v-6.48l4.208 6.576h2.704v-10.096h-2.384v6.496zm12.752-5.984a7.706 7.706 0 0 0-3.312-.752c-3.296 0-5.392 2.048-5.392 5.28 0 3.36 2.112 5.2 5.312 5.2 1.168 0 2.496-.288 3.28-.72l-.528-2.256a4.813 4.813 0 0 1-2.64.816c-1.808 0-2.864-1.2-2.864-3.104 0-1.888 1.12-3.056 2.848-3.056.896 0 1.776.272 2.528.72l.768-2.128zm10.096-.512h-2.688l-2 3.952-2.064-3.952h-2.704l3.488 6.192v3.808h2.496v-3.792l3.472-6.208zm12.16 10v-2.048h-4.816v-1.952h3.872v-2.032h-3.872v-1.92h4.816v-2.048h-7.312v10h7.312zm5.808-3.408l2.128 3.408h2.896l-3.472-5.104 3.376-4.896h-2.832L649 952.115l-2.016-3.248h-2.864l3.344 4.992-3.44 5.008h2.784l2.16-3.408zm8.8 3.408v-10h-2.544v10h2.544zm10.336-7.872v-2.128h-8.912v2.128h3.184v7.872h2.544v-7.872h3.184zM169.368 344.144c-1.232 0-2.432-.4-3.424-.928l-.48 2.112c.928.528 2.368.912 3.856.912 2.624 0 4.096-1.344 4.096-3.248 0-1.904-1.6-2.608-3.136-3.024-1.2-.336-2.112-.592-2.112-1.248 0-.544.432-.848 1.312-.848.992 0 2.24.352 3.232.88l.496-2.096c-.96-.528-2.176-.88-3.744-.88-2.48 0-3.84 1.232-3.84 3.088 0 2 1.76 2.672 3.216 3.072 1.328.368 2.048.592 2.048 1.264 0 .608-.624.944-1.52.944zm13.664-6.016h-3.184V346h-2.544v-7.872h-3.184V336h8.912v2.128zm6.08-2.128l3.488 10h-2.528l-.736-2.128h-3.712l-.72 2.128h-2.528l3.552-10h3.184zm-.336 5.888l-1.28-3.92-1.328 3.92h2.608zm7.456 4.112v-10h-2.544v10h2.544zm4.656-3.264V346h-2.544v-10h4.016c2.656 0 4.048 1.232 4.048 3.168 0 1.344-.704 2.368-2.048 2.88l2.56 3.952h-2.864l-2-3.36-1.168.096zm-.048-1.888l1.28-.032c1.088-.08 1.68-.528 1.68-1.488 0-.88-.608-1.312-1.888-1.312h-1.072v2.832zm10.784 3.296c-1.232 0-2.432-.4-3.424-.928l-.48 2.112c.928.528 2.368.912 3.856.912 2.624 0 4.096-1.344 4.096-3.248 0-1.904-1.6-2.608-3.136-3.024-1.2-.336-2.112-.592-2.112-1.248 0-.544.432-.848 1.312-.848.992 0 2.24.352 3.232.88l.496-2.096c-.96-.528-2.176-.88-3.744-.88-2.48 0-3.84 1.232-3.84 3.088 0 2 1.76 2.672 3.216 3.072 1.328.368 2.048.592 2.048 1.264 0 .608-.624.944-1.52.944zM275.528 661.144c-1.232 0-2.432-.4-3.424-.928l-.48 2.112c.928.528 2.368.912 3.856.912 2.624 0 4.096-1.344 4.096-3.248 0-1.904-1.6-2.608-3.136-3.024-1.2-.336-2.112-.592-2.112-1.248 0-.544.432-.848 1.312-.848.992 0 2.24.352 3.232.88l.496-2.096c-.96-.528-2.176-.88-3.744-.88-2.48 0-3.84 1.232-3.84 3.088 0 2 1.76 2.672 3.216 3.072 1.328.368 2.048.592 2.048 1.264 0 .608-.624.944-1.52.944zm14.8 1.856v-10h-2.544v3.888h-4.016V653h-2.544v10h2.544v-3.968h4.016V663h2.544zm12.144-5.04c0 3.168-2.288 5.28-5.264 5.28-2.96 0-5.216-1.84-5.216-5.216 0-3.168 2.272-5.264 5.248-5.264 2.976 0 5.232 1.824 5.232 5.2zm-2.56.064c0-1.92-1.008-3.216-2.704-3.216-1.696 0-2.656 1.28-2.656 3.152 0 1.92.992 3.232 2.704 3.232 1.68 0 2.656-1.296 2.656-3.168zm10.384-2.144l1.936 7.12h2.656l2.672-10h-2.608l-1.344 7.072-1.824-7.072h-2.912l-1.792 7.072-1.344-7.072h-2.72l2.672 10h2.64l1.968-7.12zM326.28 663v-2.048h-4.816V659h3.872v-2.032h-3.872v-1.92h4.816V653h-7.312v10h7.312zm4.272-3.264V663h-2.544v-10h4.016c2.656 0 4.048 1.232 4.048 3.168 0 1.344-.704 2.368-2.048 2.88l2.56 3.952h-2.864l-2-3.36-1.168.096zm-.048-1.888l1.28-.032c1.088-.08 1.68-.528 1.68-1.488 0-.88-.608-1.312-1.888-1.312h-1.072v2.832zM284.2 680.736V684h-2.544v-10h4.016c2.656 0 4.048 1.232 4.048 3.168 0 1.344-.704 2.368-2.048 2.88l2.56 3.952h-2.864l-2-3.36-1.168.096zm-.048-1.888l1.28-.032c1.088-.08 1.68-.528 1.68-1.488 0-.88-.608-1.312-1.888-1.312h-1.072v2.832zm17.264.112c0 3.168-2.288 5.28-5.264 5.28-2.96 0-5.216-1.84-5.216-5.216 0-3.168 2.272-5.264 5.248-5.264 2.976 0 5.232 1.824 5.232 5.2zm-2.56.064c0-1.92-1.008-3.216-2.704-3.216-1.696 0-2.656 1.28-2.656 3.152 0 1.92.992 3.232 2.704 3.232 1.68 0 2.656-1.296 2.656-3.168zm14.288-.064c0 3.168-2.288 5.28-5.264 5.28-2.96 0-5.216-1.84-5.216-5.216 0-3.168 2.272-5.264 5.248-5.264 2.976 0 5.232 1.824 5.232 5.2zm-2.56.064c0-1.92-1.008-3.216-2.704-3.216-1.696 0-2.656 1.28-2.656 3.152 0 1.92.992 3.232 2.704 3.232 1.68 0 2.656-1.296 2.656-3.168zM324.152 684h2.416l-.336-10h-3.552l-2.08 7.504-2.08-7.504h-3.6l-.352 10h2.368l.064-7.696 2.192 7.536h2.72l2.192-7.552.048 7.712zM147.444 1039.144c-1.232 0-2.432-.4-3.424-.928l-.48 2.112c.928.528 2.368.912 3.856.912 2.624 0 4.096-1.344 4.096-3.248 0-1.904-1.6-2.608-3.136-3.024-1.2-.336-2.112-.592-2.112-1.248 0-.544.432-.848 1.312-.848.992 0 2.24.352 3.232.88l.496-2.096c-.96-.528-2.176-.88-3.744-.88-2.48 0-3.84 1.232-3.84 3.088 0 2 1.76 2.672 3.216 3.072 1.328.368 2.048.592 2.048 1.264 0 .608-.624.944-1.52.944zm14.448-2.224V1031h-2.528v5.904c0 1.552-.624 2.192-1.824 2.192-1.328 0-1.936-.784-1.936-2.288V1031h-2.528v6.144c0 2.816 1.792 4.096 4.4 4.096 2.688 0 4.416-1.424 4.416-4.32zm8.912.576l-4.16-6.496h-2.752v10h2.384v-6.48l4.208 6.576h2.704V1031h-2.384v6.496zm7.792 1.648c-1.232 0-2.432-.4-3.424-.928l-.48 2.112c.928.528 2.368.912 3.856.912 2.624 0 4.096-1.344 4.096-3.248 0-1.904-1.6-2.608-3.136-3.024-1.2-.336-2.112-.592-2.112-1.248 0-.544.432-.848 1.312-.848.992 0 2.24.352 3.232.88l.496-2.096c-.96-.528-2.176-.88-3.744-.88-2.48 0-3.84 1.232-3.84 3.088 0 2 1.76 2.672 3.216 3.072 1.328.368 2.048.592 2.048 1.264 0 .608-.624.944-1.52.944zm13.008 1.856v-2.048h-4.816V1037h3.872v-2.032h-3.872v-1.92h4.816V1031h-7.312v10h7.312zm9.952-7.872V1031h-8.912v2.128h3.184V1041h2.544v-7.872h3.184zM244.904 57.368c-1.232 0-2.432-.4-3.424-.928l-.48 2.112c.928.528 2.368.912 3.856.912 2.624 0 4.096-1.344 4.096-3.248 0-1.904-1.6-2.608-3.136-3.024-1.2-.336-2.112-.592-2.112-1.248 0-.544.432-.848 1.312-.848.992 0 2.24.352 3.232.88l.496-2.096c-.96-.528-2.176-.88-3.744-.88-2.48 0-3.84 1.232-3.84 3.088 0 2 1.76 2.672 3.216 3.072 1.328.368 2.048.592 2.048 1.264 0 .608-.624.944-1.52.944zm11.424-8.144l3.488 10h-2.528l-.736-2.128h-3.712l-.72 2.128h-2.528l3.552-10h3.184zm-.336 5.888l-1.28-3.92-1.328 3.92h2.608zm11.632 4.112v-2.128h-4.192v-7.872h-2.544v10h6.736zm8.896 0v-2.048h-4.816v-1.952h3.872v-2.032h-3.872v-1.92h4.816v-2.048h-7.312v10h7.312zm5.056-1.856c-1.232 0-2.432-.4-3.424-.928l-.48 2.112c.928.528 2.368.912 3.856.912 2.624 0 4.096-1.344 4.096-3.248 0-1.904-1.6-2.608-3.136-3.024-1.2-.336-2.112-.592-2.112-1.248 0-.544.432-.848 1.312-.848.992 0 2.24.352 3.232.88l.496-2.096c-.96-.528-2.176-.88-3.744-.88-2.48 0-3.84 1.232-3.84 3.088 0 2 1.76 2.672 3.216 3.072 1.328.368 2.048.592 2.048 1.264 0 .608-.624.944-1.52.944zM418.708 1042v-2.048h-4.816V1038h3.872v-2.032h-3.872v-1.92h4.816V1032h-7.312v10h7.312zm4.032 0v-10.88l-2.464.304V1042h2.464zm3.776-3.168v.032c.08.992.768 1.568 1.968 1.568.816 0 1.68-.288 2.432-.72l.24 1.904c-.752.384-1.824.608-2.896.608-2.528 0-4.16-1.408-4.16-3.888 0-2.432 1.664-4.016 4.032-4.016 2.112 0 3.264 1.264 3.264 3.12 0 .4-.064.992-.16 1.312l-4.72.08zm.016-1.232l2.576-.016v-.144c0-.88-.368-1.424-1.136-1.424-.848 0-1.36.736-1.44 1.584zm13.744-3.04h-2.656l-1.52 5.104-1.536-5.104h-2.64l2.752 7.456h2.784l2.816-7.456zm4.816 5.552v-1.424c-1.52.176-2.08.464-2.08 1.12 0 .48.384.8.928.8a1.52 1.52 0 0 0 1.152-.496zm.064.992h-.048c-.528.624-1.12 1.136-2.144 1.136-1.28 0-2.272-.912-2.272-2.064 0-1.408 1.056-2.544 4.4-2.64v-.144c0-.784-.4-1.136-1.312-1.136-.768 0-1.664.32-2.528.752l-.512-1.808c.784-.416 2.016-.88 3.424-.88 2.576 0 3.424 1.168 3.392 3.248l-.016 2.208c0 .512.096.56.608.608l-.24 1.76c-1.616.208-2.416-.224-2.752-1.04zm8.912.864l-.288-1.92c-.336.112-.672.192-.976.192-.608 0-1.008-.288-.976-.976l.08-2.672h1.984l.048-1.936h-1.856l.016-1.776h-2.384l-.032 1.696-1.12.368-.048 1.568 1.12.192-.112 2.832c-.096 1.952.896 2.704 2.736 2.704.752 0 1.232-.096 1.808-.272zm8.736-3.712c0 2.496-1.808 3.984-4.032 3.984-2.24 0-3.952-1.408-3.952-3.936s1.792-3.984 4.048-3.984c2.24 0 3.936 1.44 3.936 3.936zm-2.448.016c0-1.248-.544-2.08-1.552-2.08s-1.536.816-1.536 2.096c0 1.264.544 2.064 1.552 2.064s1.536-.8 1.536-2.08zm6.272-.608c.448-.784.992-1.088 1.6-1.088.32 0 .64.08.928.224l.496-2.176a2.694 2.694 0 0 0-1.232-.304c-.784 0-1.36.4-1.792 1.152v-1.088l-2.464.304V1042h2.464v-4.336zm14.496 4.336v-2.128h-4.192V1032h-2.544v10h6.736zm8.848-3.744c0 2.496-1.808 3.984-4.032 3.984-2.24 0-3.952-1.408-3.952-3.936s1.792-3.984 4.048-3.984c2.24 0 3.936 1.44 3.936 3.936zm-2.448.016c0-1.248-.544-2.08-1.552-2.08s-1.536.816-1.536 2.096c0 1.264.544 2.064 1.552 2.064s1.536-.8 1.536-2.08zm11.536-.08c0 2.464-1.712 4.032-3.728 4.032-.496 0-1.2-.128-1.68-.304l-2.32.32v-10.816l2.464-.304v4.208c.464-.48 1.152-1.008 2.096-1.008 1.84 0 3.168 1.504 3.168 3.872zm-2.464.128c0-1.28-.544-2.032-1.552-2.032-.544 0-.912.208-1.248.512v3.28c.288.192.672.304 1.136.304 1.056 0 1.664-.832 1.664-2.064zm11.536-.128c0 2.464-1.712 4.032-3.728 4.032-.496 0-1.2-.128-1.68-.304l-2.32.32v-10.816l2.464-.304v4.208c.464-.48 1.152-1.008 2.096-1.008 1.84 0 3.168 1.504 3.168 3.872zm-2.464.128c0-1.28-.544-2.032-1.552-2.032-.544 0-.912.208-1.248.512v3.28c.288.192.672.304 1.136.304 1.056 0 1.664-.832 1.664-2.064zm11.04-3.76h-2.624l-1.44 4.896-1.584-4.896h-2.64l2.912 7.392-.208.576c-.288.72-.528.912-1.056.912-.384 0-.672-.128-1.152-.336l-.736 1.872a5.12 5.12 0 0 0 2.208.48c1.568 0 2.496-.656 3.264-2.832l.368-.976 2.688-7.088z"/>
        <g stroke="#525252" transform="translate(825 839)">
            <rect width="3.137" height="13.644" x="5.259" y="7.856" rx="1.568"/>
            <ellipse cx="13.607" cy="8.033" fill="#EBE0DC" rx="8.152" ry="8.033"/>
            <path fill="#EBE0DC" d="M5.805 6.812a8.65 8.65 0 0 0-.052.952c0 4.437 3.318 8.216 7.82 8.216.443 0 .877-.034 1.3-.1L5.805 6.812z"/>
            <circle cx="21.818" cy="17.455" r="2.182"/>
        </g>
        <g fill="#D8D8D8" transform="translate(6 546)">
            <circle cx="3" cy="83" r="3" transform="rotate(-90 3 83)"/>
            <circle cx="3" cy="67" r="3" transform="rotate(-90 3 67)"/>
            <circle cx="3" cy="51" r="3" transform="rotate(-90 3 51)"/>
            <circle cx="3" cy="35" r="3" transform="rotate(-90 3 35)"/>
            <circle cx="3" cy="19" r="3" transform="rotate(-90 3 19)"/>
            <circle cx="83" cy="83" r="3" transform="rotate(-90 83 83)"/>
            <circle cx="99" cy="83" r="3" transform="rotate(-90 99 83)"/>
            <circle cx="83" cy="67" r="3" transform="rotate(-90 83 67)"/>
            <circle cx="83" cy="51" r="3" transform="rotate(-90 83 51)"/>
            <circle cx="99" cy="67" r="3" transform="rotate(-90 99 67)"/>
            <circle cx="99" cy="51" r="3" transform="rotate(-90 99 51)"/>
            <circle cx="83" cy="35" r="3" transform="rotate(-90 83 35)"/>
            <circle cx="83" cy="19" r="3" transform="rotate(-90 83 19)"/>
            <circle cx="99" cy="35" r="3" transform="rotate(-90 99 35)"/>
            <circle cx="99" cy="19" r="3" transform="rotate(-90 99 19)"/>
            <circle cx="83" cy="3" r="3" transform="rotate(-90 83 3)"/>
            <circle cx="99" cy="3" r="3" transform="rotate(-90 99 3)"/>
            <circle cx="3" cy="3" r="3" transform="rotate(-90 3 3)"/>
            <circle cx="19" cy="83" r="3" transform="rotate(-90 19 83)"/>
            <circle cx="35" cy="83" r="3" transform="rotate(-90 35 83)"/>
            <circle cx="19" cy="67" r="3" transform="rotate(-90 19 67)"/>
            <circle cx="19" cy="51" r="3" transform="rotate(-90 19 51)"/>
            <circle cx="35" cy="67" r="3" transform="rotate(-90 35 67)"/>
            <circle cx="35" cy="51" r="3" transform="rotate(-90 35 51)"/>
            <circle cx="19" cy="35" r="3" transform="rotate(-90 19 35)"/>
            <circle cx="19" cy="19" r="3" transform="rotate(-90 19 19)"/>
            <circle cx="35" cy="35" r="3" transform="rotate(-90 35 35)"/>
            <circle cx="35" cy="19" r="3" transform="rotate(-90 35 19)"/>
            <circle cx="19" cy="3" r="3" transform="rotate(-90 19 3)"/>
            <circle cx="35" cy="3" r="3" transform="rotate(-90 35 3)"/>
            <circle cx="51" cy="83" r="3" transform="rotate(-90 51 83)"/>
            <circle cx="67" cy="83" r="3" transform="rotate(-90 67 83)"/>
            <circle cx="51" cy="67" r="3" transform="rotate(-90 51 67)"/>
            <circle cx="51" cy="51" r="3" transform="rotate(-90 51 51)"/>
            <circle cx="67" cy="67" r="3" transform="rotate(-90 67 67)"/>
            <circle cx="67" cy="51" r="3" transform="rotate(-90 67 51)"/>
            <circle cx="51" cy="35" r="3" transform="rotate(-90 51 35)"/>
            <circle cx="51" cy="19" r="3" transform="rotate(-90 51 19)"/>
            <circle cx="67" cy="35" r="3" transform="rotate(-90 67 35)"/>
            <circle cx="67" cy="19" r="3" transform="rotate(-90 67 19)"/>
            <circle cx="51" cy="3" r="3" transform="rotate(-90 51 3)"/>
            <circle cx="67" cy="3" r="3" transform="rotate(-90 67 3)"/>
        </g>
        <g fill="#D8D8D8" transform="translate(3 228)">
            <circle cx="3" cy="51" r="3" transform="rotate(-90 3 51)"/>
            <circle cx="3" cy="35" r="3" transform="rotate(-90 3 35)"/>
            <circle cx="3" cy="19" r="3" transform="rotate(-90 3 19)"/>
            <circle cx="83" cy="51" r="3" transform="rotate(-90 83 51)"/>
            <circle cx="99" cy="51" r="3" transform="rotate(-90 99 51)"/>
            <circle cx="83" cy="35" r="3" transform="rotate(-90 83 35)"/>
            <circle cx="83" cy="19" r="3" transform="rotate(-90 83 19)"/>
            <circle cx="99" cy="35" r="3" transform="rotate(-90 99 35)"/>
            <circle cx="99" cy="19" r="3" transform="rotate(-90 99 19)"/>
            <circle cx="83" cy="3" r="3" transform="rotate(-90 83 3)"/>
            <circle cx="99" cy="3" r="3" transform="rotate(-90 99 3)"/>
            <circle cx="3" cy="3" r="3" transform="rotate(-90 3 3)"/>
            <circle cx="19" cy="51" r="3" transform="rotate(-90 19 51)"/>
            <circle cx="35" cy="51" r="3" transform="rotate(-90 35 51)"/>
            <circle cx="19" cy="35" r="3" transform="rotate(-90 19 35)"/>
            <circle cx="19" cy="19" r="3" transform="rotate(-90 19 19)"/>
            <circle cx="35" cy="35" r="3" transform="rotate(-90 35 35)"/>
            <circle cx="35" cy="19" r="3" transform="rotate(-90 35 19)"/>
            <circle cx="19" cy="3" r="3" transform="rotate(-90 19 3)"/>
            <circle cx="35" cy="3" r="3" transform="rotate(-90 35 3)"/>
            <circle cx="51" cy="51" r="3" transform="rotate(-90 51 51)"/>
            <circle cx="67" cy="51" r="3" transform="rotate(-90 67 51)"/>
            <circle cx="51" cy="35" r="3" transform="rotate(-90 51 35)"/>
            <circle cx="51" cy="19" r="3" transform="rotate(-90 51 19)"/>
            <circle cx="67" cy="35" r="3" transform="rotate(-90 67 35)"/>
            <circle cx="67" cy="19" r="3" transform="rotate(-90 67 19)"/>
            <circle cx="51" cy="3" r="3" transform="rotate(-90 51 3)"/>
            <circle cx="67" cy="3" r="3" transform="rotate(-90 67 3)"/>
        </g>
        <path fill="#525252" d="M835.52 757.312v-4.944h-4.768v2.016h2.464v1.472a4.384 4.384 0 0 1-1.6.304c-1.904 0-2.912-1.184-2.912-3.184 0-1.856 1.152-3.056 2.944-3.056.96 0 1.936.288 2.88.832l.8-2.128c-.96-.576-2.48-.864-3.76-.864-3.28 0-5.392 2-5.392 5.28 0 3.296 2.176 5.2 5.376 5.2 1.456 0 2.88-.336 3.968-.928zm7.728-9.312l3.488 10h-2.528l-.736-2.128h-3.712l-.72 2.128h-2.528l3.552-10h3.184zm-.336 5.888l-1.28-3.92-1.328 3.92h2.608zm14.24 4.112h2.416l-.336-10h-3.552l-2.08 7.504-2.08-7.504h-3.6l-.352 10h2.368l.064-7.696 2.192 7.536h2.72l2.192-7.552.048 7.712zm11.584 0v-2.048h-4.816V754h3.872v-2.032h-3.872v-1.92h4.816V748h-7.312v10h7.312zm5.056-1.856c-1.232 0-2.432-.4-3.424-.928l-.48 2.112c.928.528 2.368.912 3.856.912 2.624 0 4.096-1.344 4.096-3.248 0-1.904-1.6-2.608-3.136-3.024-1.2-.336-2.112-.592-2.112-1.248 0-.544.432-.848 1.312-.848.992 0 2.24.352 3.232.88l.496-2.096c-.96-.528-2.176-.88-3.744-.88-2.48 0-3.84 1.232-3.84 3.088 0 2 1.76 2.672 3.216 3.072 1.328.368 2.048.592 2.048 1.264 0 .608-.624.944-1.52.944zM966.192 602.192c0 1.232-.4 2.432-.928 3.424l2.112.48c.528-.928.912-2.368.912-3.856 0-2.624-1.344-4.096-3.248-4.096-1.904 0-2.608 1.6-3.024 3.136-.336 1.2-.592 2.112-1.248 2.112-.544 0-.848-.432-.848-1.312 0-.992.352-2.24.88-3.232l-2.096-.496c-.528.96-.88 2.176-.88 3.744 0 2.48 1.232 3.84 3.088 3.84 2 0 2.672-1.76 3.072-3.216.368-1.328.592-2.048 1.264-2.048.608 0 .944.624.944 1.52zm1.856-13.008H966V594h-1.952v-3.872h-2.032V594h-1.92v-4.816h-2.048v7.312h10v-7.312zm-9.488-9.84a7.706 7.706 0 0 0-.752 3.312c0 3.296 2.048 5.392 5.28 5.392 3.36 0 5.2-2.112 5.2-5.312 0-1.168-.288-2.496-.72-3.28l-2.256.528c.496.752.816 1.664.816 2.64 0 1.808-1.2 2.864-3.104 2.864-1.888 0-3.056-1.12-3.056-2.848 0-.896.272-1.776.72-2.528l-2.128-.768zm4.448-11.28c3.168 0 5.28 2.288 5.28 5.264 0 2.96-1.84 5.216-5.216 5.216-3.168 0-5.264-2.272-5.264-5.248 0-2.976 1.824-5.232 5.2-5.232zm.064 2.56c-1.92 0-3.216 1.008-3.216 2.704 0 1.696 1.28 2.656 3.152 2.656 1.92 0 3.232-.992 3.232-2.704 0-1.68-1.296-2.656-3.168-2.656zm1.472-11.136l-6.496 4.16v2.752h10v-2.384h-6.48l6.576-4.208v-2.704h-10.096v2.384h6.496zm-1.568-13.744c3.072 0 5.072 2.032 5.072 5.696v3.584h-10v-3.76c0-3.52 1.952-5.52 4.928-5.52zm.096 2.56c-2.064 0-2.992 1.04-2.992 3.12v1.056h5.936v-1.184c0-1.84-.944-2.992-2.944-2.992zm3.12-11.152c0 1.232-.4 2.432-.928 3.424l2.112.48c.528-.928.912-2.368.912-3.856 0-2.624-1.344-4.096-3.248-4.096-1.904 0-2.608 1.6-3.024 3.136-.336 1.2-.592 2.112-1.248 2.112-.544 0-.848-.432-.848-1.312 0-.992.352-2.24.88-3.232l-2.096-.496c-.528.96-.88 2.176-.88 3.744 0 2.48 1.232 3.84 3.088 3.84 2 0 2.672-1.76 3.072-3.216.368-1.328.592-2.048 1.264-2.048.608 0 .944.624.944 1.52zm-6.016-13.664h-2.128v8.912h2.128v-3.184h7.872v-2.544h-7.872v-3.184zm4.608-3.952h3.264v2.544h-10v-4.016c0-2.656 1.232-4.048 3.168-4.048 1.344 0 2.368.704 2.88 2.048l3.952-2.56v2.864l-3.36 2 .096 1.168zm-1.888.048l-.032-1.28c-.08-1.088-.528-1.68-1.488-1.68-.88 0-1.312.608-1.312 1.888v1.072h2.832zm5.152-14.688H966v4.816h-1.952v-3.872h-2.032v3.872h-1.92v-4.816h-2.048v7.312h10v-7.312zm0-9.04H966v4.816h-1.952V496.8h-2.032v3.872h-1.92v-4.816h-2.048v7.312h10v-7.312zm-7.872-9.952h-2.128v8.912h2.128v-3.184h7.872v-2.544h-7.872v-3.184zM1037.872 202.808c3.168 0 5.28 2.288 5.28 5.264 0 2.96-1.84 5.216-5.216 5.216-3.168 0-5.264-2.272-5.264-5.248 0-2.976 1.824-5.232 5.2-5.232zm.064 2.56c-1.92 0-3.216 1.008-3.216 2.704 0 1.696 1.28 2.656 3.152 2.656 1.92 0 3.232-.992 3.232-2.704 0-1.68-1.296-2.656-3.168-2.656zm-4.512-12.512a7.706 7.706 0 0 0-.752 3.312c0 3.296 2.048 5.392 5.28 5.392 3.36 0 5.2-2.112 5.2-5.312 0-1.168-.288-2.496-.72-3.28l-2.256.528c.496.752.816 1.664.816 2.64 0 1.808-1.2 2.864-3.104 2.864-1.888 0-3.056-1.12-3.056-2.848 0-.896.272-1.776.72-2.528l-2.128-.768zm9.488-8.832h-2.048v4.816h-1.952v-3.872h-2.032v3.872h-1.92v-4.816h-2.048v7.312h10v-7.312zm-10-7.456l10-3.488v2.528l-2.128.736v3.712l2.128.72v2.528l-10-3.552v-3.184zm5.888.336l-3.92 1.28 3.92 1.328v-2.608zm.608-11.808l-6.496 4.16v2.752h10v-2.384h-6.48l6.576-4.208v-2.704h-10.096v2.384h6.496z"/>
        <g stroke="#9CDCF4" stroke-width="3">
            <path d="M1026 131s18-10.733 0-24M1026 108s18-10.733 0-24M1026 85s18-10.733 0-24M1043 117s18-10.733 0-24M1043 94s18-10.733 0-24M1043 72s18-10.733 0-24"/>
        </g>
        <g stroke="#9CDCF4" stroke-width="3">
            <path d="M1036 316s18-10.733 0-24M1036 293s18-10.733 0-24M1036 271s18-10.733 0-24"/>
        </g>
    </g>
</svg>
