<?xml version="1.0" encoding="UTF-8"?>
<svg width="1170px" height="1012px" viewBox="0 0 1170 1012" version="1.1" xmlns="http://www.w3.org/2000/svg" xmlns:xlink="http://www.w3.org/1999/xlink">
    <!-- Generator: Sketch 43.1 (39012) - http://www.bohemiancoding.com/sketch -->
    <title>Map</title>
    <desc>Created with Sketch.</desc>
    <defs></defs>
    <g id="Page-1" stroke="none" stroke-width="1" fill="none" fill-rule="evenodd">
        <g id="Map">
            <rect id="Rectangle-4" fill="#525252" x="691" y="186" width="3" height="68"></rect>
            <rect id="Rectangle-4" fill="#525252" x="701" y="186" width="3" height="68"></rect>
            <rect id="Rectangle-4" fill="#525252" x="711" y="186" width="3" height="68"></rect>
            <rect id="Rectangle-4" fill="#525252" x="721" y="186" width="3" height="68"></rect>
            <rect id="Rectangle-4" fill="#525252" x="731" y="186" width="3" height="68"></rect>
            <rect id="Rectangle-4" fill="#525252" x="741" y="186" width="3" height="68"></rect>
            <rect id="Rectangle-4" fill="#525252" x="751" y="186" width="3" height="68"></rect>
            <rect id="Rectangle-4" fill="#525252" x="761" y="186" width="3" height="68"></rect>
            <rect id="Rectangle-4" fill="#525252" x="771" y="186" width="3" height="68"></rect>
            <rect id="Rectangle-4" fill="#525252" x="781" y="186" width="3" height="68"></rect>
            <rect id="Rectangle-4" fill="#525252" x="791" y="186" width="3" height="68"></rect>
            <rect id="Rectangle-3" fill="#CBEEF0" x="765" y="35" width="99" height="98"></rect>
            <rect id="Rectangle-3" fill="#CBEEF0" x="876" y="35" width="56" height="98"></rect>
            <rect id="Rectangle-3" fill="#CBEEF0" x="526" y="35" width="99" height="98"></rect>
            <rect id="Rectangle-3" fill="#CBEEF0" x="629" y="35" width="120" height="98"></rect>
            <rect id="Rectangle-3" fill="#EBE0DC" x="298" y="300" width="216" height="143"></rect>
            <rect id="Rectangle-3" fill="#EBE0DC" x="558" y="301" width="445" height="283"></rect>
            <rect id="Rectangle-3" fill="#EBE0DC" x="560" y="169" width="99" height="120"></rect>
            <rect id="Rectangle-3" fill="#F7E398" x="19" y="434" width="176" height="120"></rect>
            <rect id="Rectangle-3" fill="#CBEEF0" x="667" y="630" width="482" height="48"></rect>
            <rect id="Rectangle-3" fill="#EBE0DC" x="202" y="44" width="309" height="191"></rect>
            <rect id="Rectangle-3" fill="#CBEEF0" x="78" y="686" width="120" height="143"></rect>
            <path d="M76,850 L252,850 L252,980 C252,980 223.113281,984.15625 181.203125,964.242188 C139.292969,944.328125 132.625,923 132.625,923 L76,923 L76,850 Z" id="Rectangle-3" fill="#CBEEF0"></path>
            <rect id="Rectangle-3" fill="#EBE0DC" x="377" y="462" width="146" height="89"></rect>
            <rect id="Rectangle-3" fill="#CBEEF0" transform="translate(593.213221, 678.867734) rotate(47.000000) translate(-593.213221, -678.867734) " x="571.213221" y="649.867734" width="44" height="58"></rect>
            <text id="RESTROOM" font-family="FreightSansProBold-Regular, FreightSans Pro" font-size="16" font-weight="bold" fill="#525252">
                <tspan x="365" y="375">RESTROOM</tspan>
            </text>
            <text id="PHONE-BOOTH" font-family="FreightSansProBold-Regular, FreightSans Pro" font-size="16" font-weight="bold" fill="#525252">
                <tspan x="559" y="660">PHONE </tspan>
                <tspan x="559" y="681">BOOTH</tspan>
            </text>
            <text id="ZUMA" font-family="FreightSansProBold-Regular, FreightSans Pro" font-size="16" font-weight="bold" fill="#525252">
                <tspan x="117" y="771">ZUMA</tspan>
            </text>
            <text id="OFFICE-DIRECTOR-OFFI" font-family="FreightSansProBold-Regular, FreightSans Pro" font-size="16" font-weight="bold" fill="#525252">
                <tspan x="84" y="892">OFFICE DIRECTOR OFFICE</tspan>
            </text>
            <text id="KITCHEN-AREA" font-family="FreightSansProBold-Regular, FreightSans Pro" font-size="16" font-weight="bold" fill="#525252">
                <tspan x="401" y="515">KITCHEN AREA</tspan>
            </text>
            <rect id="Rectangle-3" fill="#FBCBB3" x="261" y="462" width="86" height="89"></rect>
            <text id="FRONT-DESK" font-family="FreightSansProBold-Regular, FreightSans Pro" font-size="16" font-weight="bold" fill="#525252">
                <tspan x="256" y="510">FRONT DESK</tspan>
            </text>
            <text id="ENTRANCE" font-family="FreightSansProBold-Regular, FreightSans Pro" font-size="16" font-weight="bold" fill="#525252">
                <tspan x="78" y="500">ENTRANCE</tspan>
            </text>
            <rect id="Rectangle-3" fill="#CBEEF0" x="77" y="44" width="101" height="98"></rect>
            <rect id="Rectangle-3" fill="#CBEEF0" x="74" y="160" width="99" height="98"></rect>
            <rect id="Rectangle-3" fill="#CBEEF0" x="940" y="35" width="99" height="98"></rect>
            <rect id="Rectangle-3" fill="#CBEEF0" x="1051" y="35" width="99" height="98"></rect>
            <rect id="Rectangle-3" fill="#CBEEF0" x="1050" y="138" width="99" height="98"></rect>
            <rect id="Rectangle-3" fill="#CBEEF0" x="1050" y="244.226115" width="99" height="98"></rect>
            <rect id="Rectangle-3" fill="#CBEEF0" x="1052" y="352.5" width="99" height="109"></rect>
            <path d="M65,927.714859 L65,31 L1155.352,31 L1155.352,683.079317 L640.518842,683.079317 L399.070312,927.714859 C399.070312,927.714859 351.402344,992.636719 262.070312,992.636719 C172.738281,992.636719 126.179688,927.714859 126.179688,927.714859 L65,927.714859 Z" id="Path-3" stroke="#525252" stroke-width="4"></path>
            <text id="MOTHER’S-ROOM" font-family="FreightSansProBold-Regular, FreightSans Pro" font-size="16" font-weight="bold" fill="#525252">
                <tspan x="84" y="84">MOTHER’S ROOM</tspan>
            </text>
            <text id="SALES" font-family="FreightSansProBold-Regular, FreightSans Pro" font-size="16" font-weight="bold" fill="#525252">
                <tspan x="76" y="197">SALES</tspan>
            </text>
            <text id="TOPANGA" font-family="FreightSansProBold-Regular, FreightSans Pro" font-size="16" font-weight="bold" fill="#525252">
                <tspan x="650" y="82">TOPANGA</tspan>
            </text>
            <text id="SEAL" font-family="FreightSansProBold-Regular, FreightSans Pro" font-size="16" font-weight="bold" fill="#525252">
                <tspan x="796" y="82">SEAL</tspan>
            </text>
            <text id="D&amp;F-SPACE" font-family="FreightSansProBold-Regular, FreightSans Pro" font-size="16" font-weight="bold" fill="#525252">
                <tspan x="595.46" y="215">D&amp;F</tspan>
                <tspan x="587.156" y="236">SPACE</tspan>
            </text>
            <text id="BREAKWATER" font-family="FreightSansProBold-Regular, FreightSans Pro" font-size="16" font-weight="bold" fill="#525252">
                <tspan x="939" y="82">BREAKWATER</tspan>
            </text>
            <text id="NEWPORT" font-family="FreightSansProBold-Regular, FreightSans Pro" font-size="16" font-weight="bold" fill="#525252">
                <tspan x="1062" y="82">NEWPORT</tspan>
            </text>
            <text id="WEDGE" font-family="FreightSansProBold-Regular, FreightSans Pro" font-size="16" font-weight="bold" fill="#525252">
                <tspan x="1062" y="185">WEDGE</tspan>
            </text>
            <text id="TRESTLES" font-family="FreightSansProBold-Regular, FreightSans Pro" font-size="16" font-weight="bold" fill="#525252">
                <tspan x="1059" y="296">TRESTLES</tspan>
            </text>
            <text id="AD-OFFICE" font-family="FreightSansProBold-Regular, FreightSans Pro" font-size="16" font-weight="bold" fill="#525252">
                <tspan x="1056" y="402">AD OFFICE</tspan>
            </text>
            <g id="Group-5" transform="translate(820.000000, 193.000000)">
                <ellipse id="Oval-3" stroke="#525252" cx="24" cy="24" rx="24" ry="24"></ellipse>
                <path d="M29.4068251,11 C29.1141028,11.0285735 28.8908068,11.283769 28.8920746,11.5882863 L28.8920746,17.177006 L23.4960693,17.177006 C23.1823842,17.1770385 22.9281001,17.4404042 22.9280687,17.7652923 L22.9280687,23.3540033 L17.5320634,23.3540033 C17.2183784,23.3540358 16.9640942,23.6174015 16.9640629,23.9422896 L16.9640629,29.5310093 L11.5680576,29.5310093 C11.2543725,29.5310418 11.0000884,29.7944075 11.000057,30.1192956 L11.000057,36.2963017 C10.9971601,36.5084588 11.1047823,36.7057968 11.2817131,36.812751 C11.4586439,36.9197052 11.6774713,36.9197052 11.8544021,36.812751 C12.0313329,36.7057968 12.1389551,36.5084588 12.1360582,36.2963017 L12.1360582,30.7075819 L17.4255633,30.7075819 C17.5173263,30.7249935 17.6118173,30.7187301 17.7006886,30.689345 C17.7036422,30.6893689 17.7065959,30.6893689 17.7095494,30.689345 C17.7434181,30.677243 17.7761055,30.6618496 17.8071745,30.6433704 C17.8352543,30.6273537 17.8619748,30.6089039 17.8870496,30.5882186 C17.8900354,30.5852129 17.8929891,30.5821732 17.8959104,30.5791002 C17.8988962,30.5760944 17.90185,30.5730548 17.9047712,30.5699817 C17.9171219,30.5582736 17.9289668,30.5460057 17.9402712,30.5332138 C17.9558689,30.5187572 17.9706832,30.5034188 17.9846463,30.4872687 C17.9941863,30.4723705 18.0030658,30.4570297 18.0112571,30.4412941 C18.0321565,30.4094798 18.0499919,30.3756186 18.0645072,30.3401971 C18.0645299,30.3371577 18.0645299,30.3341181 18.0645072,30.3310787 C18.0710434,30.3160282 18.0769653,30.3006996 18.0822572,30.2851335 C18.0822799,30.2820941 18.0822799,30.2790545 18.0822572,30.2760151 C18.1051905,30.1955492 18.1112425,30.1109339 18.1000072,30.0278465 L18.1000072,24.5310465 L23.3895124,24.5310465 C23.4812754,24.548458 23.5757664,24.5421946 23.6646376,24.5128096 C23.6675912,24.5128335 23.6705449,24.5128335 23.6734985,24.5128096 C23.7073661,24.500717 23.7400534,24.4853335 23.7711235,24.4668644 C23.7992034,24.4508477 23.8259238,24.4323979 23.8509986,24.4117126 C23.8539844,24.4087069 23.8569382,24.4056672 23.8598594,24.4025942 C23.8628452,24.3995884 23.865799,24.3965488 23.8687202,24.3934757 C23.881071,24.3817676 23.8929159,24.3694997 23.9042203,24.3567078 C23.9198187,24.3422417 23.934633,24.3268934 23.9485953,24.3107333 C23.9581346,24.2958447 23.9670141,24.2805137 23.9752061,24.2647881 C23.996638,24.2300538 24.0144861,24.1930828 24.0284562,24.1544844 C24.0349931,24.1394243 24.0409151,24.1240859 24.0462062,24.1085099 C24.0704379,24.0251353 24.0765004,23.9372298 24.0639562,23.8511346 L24.0639562,18.3543434 L29.3534614,18.3543434 C29.445236,18.3717075 29.5397272,18.3653936 29.6285867,18.3359595 C29.6315402,18.3359833 29.6344939,18.3359833 29.6374475,18.3359595 C29.6713157,18.3238622 29.704003,18.3084737 29.7350726,18.2899996 C29.7631524,18.2739828 29.7898728,18.255533 29.8149477,18.2348477 C29.8179338,18.2318225 29.8208875,18.2287632 29.8238085,18.2256705 C29.8267946,18.2226452 29.8297483,18.219586 29.8326693,18.2164932 C29.84502,18.2047851 29.8568649,18.1925171 29.8681693,18.1797253 C29.8837674,18.1652639 29.8985817,18.1499206 29.9125444,18.1337655 C29.922084,18.1188721 29.9309635,18.1035362 29.9391552,18.0878056 C29.9605871,18.0530713 29.9784351,18.0161003 29.9924052,17.9775019 C29.9989418,17.9624466 30.0048637,17.9471131 30.0101553,17.931542 C30.034387,17.8481675 30.0404494,17.760262 30.0279053,17.6741668 L30.0279053,12.1773668 L35.4239097,12.1773668 C35.6287511,12.1803672 35.8192843,12.0689013 35.9225504,11.8856516 C36.0258165,11.7024018 36.0258165,11.4757591 35.9225504,11.2925094 C35.8192843,11.1092596 35.6287511,10.9977938 35.4239097,11.0007942 L29.4599047,11.0007942 C29.4421645,10.9999321 29.4243949,10.9999321 29.4066547,11.0007942 L29.4068251,11 Z" id="Shape" fill="#525252"></path>
            </g>
            <g id="Group-5" transform="translate(154.000000, 624.000000)">
                <ellipse id="Oval-3" stroke="#525252" cx="24" cy="24" rx="24" ry="24"></ellipse>
                <path d="M29.4068251,11 C29.1141028,11.0285735 28.8908068,11.283769 28.8920746,11.5882863 L28.8920746,17.177006 L23.4960693,17.177006 C23.1823842,17.1770385 22.9281001,17.4404042 22.9280687,17.7652923 L22.9280687,23.3540033 L17.5320634,23.3540033 C17.2183784,23.3540358 16.9640942,23.6174015 16.9640629,23.9422896 L16.9640629,29.5310093 L11.5680576,29.5310093 C11.2543725,29.5310418 11.0000884,29.7944075 11.000057,30.1192956 L11.000057,36.2963017 C10.9971601,36.5084588 11.1047823,36.7057968 11.2817131,36.812751 C11.4586439,36.9197052 11.6774713,36.9197052 11.8544021,36.812751 C12.0313329,36.7057968 12.1389551,36.5084588 12.1360582,36.2963017 L12.1360582,30.7075819 L17.4255633,30.7075819 C17.5173263,30.7249935 17.6118173,30.7187301 17.7006886,30.689345 C17.7036422,30.6893689 17.7065959,30.6893689 17.7095494,30.689345 C17.7434181,30.677243 17.7761055,30.6618496 17.8071745,30.6433704 C17.8352543,30.6273537 17.8619748,30.6089039 17.8870496,30.5882186 C17.8900354,30.5852129 17.8929891,30.5821732 17.8959104,30.5791002 C17.8988962,30.5760944 17.90185,30.5730548 17.9047712,30.5699817 C17.9171219,30.5582736 17.9289668,30.5460057 17.9402712,30.5332138 C17.9558689,30.5187572 17.9706832,30.5034188 17.9846463,30.4872687 C17.9941863,30.4723705 18.0030658,30.4570297 18.0112571,30.4412941 C18.0321565,30.4094798 18.0499919,30.3756186 18.0645072,30.3401971 C18.0645299,30.3371577 18.0645299,30.3341181 18.0645072,30.3310787 C18.0710434,30.3160282 18.0769653,30.3006996 18.0822572,30.2851335 C18.0822799,30.2820941 18.0822799,30.2790545 18.0822572,30.2760151 C18.1051905,30.1955492 18.1112425,30.1109339 18.1000072,30.0278465 L18.1000072,24.5310465 L23.3895124,24.5310465 C23.4812754,24.548458 23.5757664,24.5421946 23.6646376,24.5128096 C23.6675912,24.5128335 23.6705449,24.5128335 23.6734985,24.5128096 C23.7073661,24.500717 23.7400534,24.4853335 23.7711235,24.4668644 C23.7992034,24.4508477 23.8259238,24.4323979 23.8509986,24.4117126 C23.8539844,24.4087069 23.8569382,24.4056672 23.8598594,24.4025942 C23.8628452,24.3995884 23.865799,24.3965488 23.8687202,24.3934757 C23.881071,24.3817676 23.8929159,24.3694997 23.9042203,24.3567078 C23.9198187,24.3422417 23.934633,24.3268934 23.9485953,24.3107333 C23.9581346,24.2958447 23.9670141,24.2805137 23.9752061,24.2647881 C23.996638,24.2300538 24.0144861,24.1930828 24.0284562,24.1544844 C24.0349931,24.1394243 24.0409151,24.1240859 24.0462062,24.1085099 C24.0704379,24.0251353 24.0765004,23.9372298 24.0639562,23.8511346 L24.0639562,18.3543434 L29.3534614,18.3543434 C29.445236,18.3717075 29.5397272,18.3653936 29.6285867,18.3359595 C29.6315402,18.3359833 29.6344939,18.3359833 29.6374475,18.3359595 C29.6713157,18.3238622 29.704003,18.3084737 29.7350726,18.2899996 C29.7631524,18.2739828 29.7898728,18.255533 29.8149477,18.2348477 C29.8179338,18.2318225 29.8208875,18.2287632 29.8238085,18.2256705 C29.8267946,18.2226452 29.8297483,18.219586 29.8326693,18.2164932 C29.84502,18.2047851 29.8568649,18.1925171 29.8681693,18.1797253 C29.8837674,18.1652639 29.8985817,18.1499206 29.9125444,18.1337655 C29.922084,18.1188721 29.9309635,18.1035362 29.9391552,18.0878056 C29.9605871,18.0530713 29.9784351,18.0161003 29.9924052,17.9775019 C29.9989418,17.9624466 30.0048637,17.9471131 30.0101553,17.931542 C30.034387,17.8481675 30.0404494,17.760262 30.0279053,17.6741668 L30.0279053,12.1773668 L35.4239097,12.1773668 C35.6287511,12.1803672 35.8192843,12.0689013 35.9225504,11.8856516 C36.0258165,11.7024018 36.0258165,11.4757591 35.9225504,11.2925094 C35.8192843,11.1092596 35.6287511,10.9977938 35.4239097,11.0007942 L29.4599047,11.0007942 C29.4421645,10.9999321 29.4243949,10.9999321 29.4066547,11.0007942 L29.4068251,11 Z" id="Shape" fill="#525252"></path>
            </g>
            <polyline id="Line" stroke="#525252" stroke-width="4" stroke-linecap="square" points="756.363477 31 756.363477 139.018517 656 139.018517"></polyline>
            <path d="M618,31.5 L618,139.518517" id="Line" stroke="#525252" stroke-width="4" stroke-linecap="square"></path>
            <path d="M183,32 L183,132" id="Line" stroke="#525252" stroke-width="4" stroke-linecap="square"></path>
            <polyline id="Line" stroke="#525252" stroke-width="4" stroke-linecap="square" points="183.280044 169 183.280044 249 65 249"></polyline>
            <polygon id="Line" stroke="#525252" stroke-width="4" stroke-linecap="square" transform="translate(124.140022, 334.000000) scale(1, -1) translate(-124.140022, -334.000000) " points="65.3804177 249 183.280044 249 183.280044 419 65 419"></polygon>
            <polygon id="Line" stroke="#525252" stroke-width="4" stroke-linecap="square" points="65.3804177 567 183.280044 567 183.280044 615 65 615"></polygon>
            <polyline id="Line" stroke="#525252" stroke-width="4" stroke-linecap="square" points="519 31.5 519 139.518517 593.60444 139.518517"></polyline>
            <polyline id="Line" stroke="#525252" stroke-width="4" stroke-linecap="square" points="935 32 935 140.018517 1009.60444 140.018517"></polyline>
            <path d="M1040,32 L1040,140.018517" id="Line" stroke="#525252" stroke-width="4" stroke-linecap="square"></path>
            <path d="M870,31 L870,139.018517" id="Line" stroke="#525252" stroke-width="4" stroke-linecap="square"></path>
            <path d="M658,626.964309 L658,681.018517" id="Line" stroke="#525252" stroke-width="4" stroke-linecap="square"></path>
            <path d="M355,449 L355,554" id="Line" stroke="#525252" stroke-width="4" stroke-linecap="square"></path>
            <path d="M1151,138.018517 L1064,138.018517" id="Line" stroke="#525252" stroke-width="4" stroke-linecap="square"></path>
            <path d="M1152,625.018517 L692.990317,625.018517" id="Line" stroke="#525252" stroke-width="4" stroke-linecap="square"></path>
            <polyline id="Line" stroke="#525252" stroke-width="4" stroke-linecap="square" points="270 411.092328 270 449.274152 282.535156 449.274152 520 449.274152 520 293.018517 270 293.018517 270 337.679026"></polyline>
            <polyline id="Line" stroke="#525252" stroke-width="4" stroke-linecap="square" points="1151.91797 236.431552 1045 236.431552 1045 171"></polyline>
            <polyline id="Line" stroke="#525252" stroke-width="4" stroke-linecap="square" points="1151.91797 344.431552 1045 344.431552 1045 279"></polyline>
            <polyline id="Line" stroke="#525252" stroke-width="4" stroke-linecap="square" points="1151.91797 453.431552 1045 453.431552 1045 388"></polyline>
            <polyline id="Line" stroke="#525252" stroke-width="4" stroke-linecap="square" transform="translate(793.075727, 85.009258) scale(-1, 1) translate(-793.075727, -85.009258) " points="830.151453 31 830.151453 139.018517 756 139.018517"></polyline>
            <polyline id="Line" stroke="#525252" stroke-width="4" stroke-linecap="square" points="935.039419 32 935.039419 140.018517 886 140.018517"></polyline>
            <polyline id="Path-6" stroke="#525252" stroke-width="4" points="818.65625 264.851563 894.900525 264.851563 894.900525 175.827524 678.878906 175.827524 678.878906 264.265625 795.292969 264.988281"></polyline>
            <path d="M200,723.5 L200,838.569544" id="Line" stroke="#525252" stroke-width="4" stroke-linecap="square"></path>
            <polyline id="Line" stroke="#525252" stroke-width="4" stroke-linecap="square" points="68.5 839.5 263.510256 839.5 263.510256 989.918917"></polyline>
            <polyline id="Line" stroke="#525252" stroke-width="4" stroke-linecap="square" points="69.5 688 227.53125 688 227.53125 639.93638"></polyline>
            <path d="M65.5,152 L166.5,152" id="Line" stroke="#525252" stroke-width="4" stroke-linecap="square"></path>
            <path d="M65,615 L225,615" id="Line" stroke="#525252" stroke-width="4" stroke-linecap="square"></path>
            <circle id="Oval-4" fill="#EBE0DC" cx="415.5" cy="714.5" r="114.5"></circle>
            <text id="EVENT-SPACE" font-family="FreightSansProBold-Regular, FreightSans Pro" font-size="16" font-weight="bold" fill="#525252">
                <tspan x="365" y="718">EVENT SPACE</tspan>
            </text>
            <text id="WORKFLOOR" font-family="FreightSansProBold-Regular, FreightSans Pro" font-size="16" font-weight="bold" fill="#525252">
                <tspan x="729" y="448">WORKFLOOR</tspan>
            </text>
            <text id="DECK-(OUTSIDE)" font-family="FreightSansProBold-Regular, FreightSans Pro" font-size="16" font-weight="bold" fill="#525252">
                <tspan x="855" y="660">DECK (OUTSIDE)</tspan>
            </text>
            <text id="WORKFLOOR" font-family="FreightSansProBold-Regular, FreightSans Pro" font-size="16" font-weight="bold" fill="#525252">
                <tspan x="310" y="143">WORKFLOOR</tspan>
            </text>
            <rect id="Rectangle-4" fill="#525252" x="76" y="624" width="3" height="48"></rect>
            <rect id="Rectangle-4" fill="#525252" x="86" y="624" width="3" height="48"></rect>
            <rect id="Rectangle-4" fill="#525252" x="96" y="624" width="3" height="48"></rect>
            <rect id="Rectangle-4" fill="#525252" x="106" y="624" width="3" height="48"></rect>
            <rect id="Rectangle-4" fill="#525252" x="116" y="624" width="3" height="48"></rect>
            <rect id="Rectangle-4" fill="#525252" x="126" y="624" width="3" height="48"></rect>
            <path d="M65,927.714859 L65,31 L1155.352,31 L1155.352,683.079317 L640.518842,683.079317 L399.070312,927.714859 C399.070312,927.714859 351.402344,992.636719 262.070312,992.636719 C172.738281,992.636719 126.179688,927.714859 126.179688,927.714859 L65,927.714859 Z" id="Path-3" stroke="#525252" stroke-width="4"></path>
            <path d="M65,927.714859 L65,31 L1155.352,31 L1155.352,683.079317 L640.518842,683.079317 L399.070312,927.714859 C399.070312,927.714859 351.402344,992.636719 262.070312,992.636719 C172.738281,992.636719 126.179688,927.714859 126.179688,927.714859 L65,927.714859 Z" id="Path-3" stroke="#525252" stroke-width="4"></path>
            <path d="M65,927.714859 L65,31 L1155.352,31 L1155.352,683.079317 L640.518842,683.079317 L399.070312,927.714859 C399.070312,927.714859 351.402344,992.636719 262.070312,992.636719 C172.738281,992.636719 126.179688,927.714859 126.179688,927.714859 L65,927.714859 Z" id="Path-3" stroke="#525252" stroke-width="4"></path>
            <path d="M65,927.714859 L65,31 L1155.352,31 L1155.352,683.079317 L640.518842,683.079317 L399.070312,927.714859 C399.070312,927.714859 351.402344,992.636719 262.070312,992.636719 C172.738281,992.636719 126.179688,927.714859 126.179688,927.714859 L65,927.714859 Z" id="Path-3" stroke="#525252" stroke-width="4"></path>
            <path d="M65,927.714859 L65,31 L1155.352,31 L1155.352,683.079317 L640.518842,683.079317 L399.070312,927.714859 C399.070312,927.714859 351.402344,992.636719 262.070312,992.636719 C172.738281,992.636719 126.179688,927.714859 126.179688,927.714859 L65,927.714859 Z" id="Path-3" stroke="#525252" stroke-width="4"></path>
            <path d="M65,927.714859 L65,31 L1155.352,31 L1155.352,683.079317 L640.518842,683.079317 L399.070312,927.714859 C399.070312,927.714859 351.402344,992.636719 262.070312,992.636719 C172.738281,992.636719 126.179688,927.714859 126.179688,927.714859 L65,927.714859 Z" id="Path-3" stroke="#525252" stroke-width="4"></path>
            <path d="M65,927.714859 L65,31 L1155.352,31 L1155.352,683.079317 L640.518842,683.079317 L399.070312,927.714859 C399.070312,927.714859 351.402344,992.636719 262.070312,992.636719 C172.738281,992.636719 126.179688,927.714859 126.179688,927.714859 L65,927.714859 Z" id="Path-3" stroke="#525252" stroke-width="4"></path>
            <g id="Group-9" transform="translate(73.000000, 262.000000)" fill="#D8D8D8">
                <circle id="Oval-6" cx="3" cy="3" r="3"></circle>
                <circle id="Oval-6" cx="19" cy="3" r="3"></circle>
                <circle id="Oval-6" cx="3" cy="19" r="3"></circle>
                <circle id="Oval-6" cx="19" cy="19" r="3"></circle>
                <circle id="Oval-6" cx="35" cy="3" r="3"></circle>
                <circle id="Oval-6" cx="51" cy="3" r="3"></circle>
                <circle id="Oval-6" cx="35" cy="19" r="3"></circle>
                <circle id="Oval-6" cx="51" cy="19" r="3"></circle>
                <circle id="Oval-6" cx="67" cy="3" r="3"></circle>
                <circle id="Oval-6" cx="83" cy="3" r="3"></circle>
                <circle id="Oval-6" cx="67" cy="19" r="3"></circle>
                <circle id="Oval-6" cx="83" cy="19" r="3"></circle>
                <circle id="Oval-6" cx="99" cy="3" r="3"></circle>
                <circle id="Oval-6" cx="99" cy="19" r="3"></circle>
                <circle id="Oval-6" cx="3" cy="35" r="3"></circle>
                <circle id="Oval-6" cx="19" cy="35" r="3"></circle>
                <circle id="Oval-6" cx="3" cy="51" r="3"></circle>
                <circle id="Oval-6" cx="19" cy="51" r="3"></circle>
                <circle id="Oval-6" cx="35" cy="35" r="3"></circle>
                <circle id="Oval-6" cx="51" cy="35" r="3"></circle>
                <circle id="Oval-6" cx="35" cy="51" r="3"></circle>
                <circle id="Oval-6" cx="51" cy="51" r="3"></circle>
                <circle id="Oval-6" cx="67" cy="35" r="3"></circle>
                <circle id="Oval-6" cx="83" cy="35" r="3"></circle>
                <circle id="Oval-6" cx="67" cy="51" r="3"></circle>
                <circle id="Oval-6" cx="83" cy="51" r="3"></circle>
                <circle id="Oval-6" cx="99" cy="35" r="3"></circle>
                <circle id="Oval-6" cx="3" cy="131" r="3"></circle>
                <circle id="Oval-6" cx="19" cy="131" r="3"></circle>
                <circle id="Oval-6" cx="3" cy="147" r="3"></circle>
                <circle id="Oval-6" cx="19" cy="147" r="3"></circle>
                <circle id="Oval-6" cx="35" cy="131" r="3"></circle>
                <circle id="Oval-6" cx="51" cy="131" r="3"></circle>
                <circle id="Oval-6" cx="35" cy="147" r="3"></circle>
                <circle id="Oval-6" cx="51" cy="147" r="3"></circle>
                <circle id="Oval-6" cx="67" cy="131" r="3"></circle>
                <circle id="Oval-6" cx="83" cy="131" r="3"></circle>
                <circle id="Oval-6" cx="67" cy="147" r="3"></circle>
                <circle id="Oval-6" cx="83" cy="147" r="3"></circle>
                <circle id="Oval-6" cx="99" cy="131" r="3"></circle>
                <circle id="Oval-6" cx="99" cy="147" r="3"></circle>
                <circle id="Oval-6" cx="99" cy="51" r="3"></circle>
                <circle id="Oval-6" cx="3" cy="67" r="3"></circle>
                <circle id="Oval-6" cx="19" cy="67" r="3"></circle>
                <circle id="Oval-6" cx="3" cy="83" r="3"></circle>
                <circle id="Oval-6" cx="19" cy="83" r="3"></circle>
                <circle id="Oval-6" cx="35" cy="67" r="3"></circle>
                <circle id="Oval-6" cx="51" cy="67" r="3"></circle>
                <circle id="Oval-6" cx="35" cy="83" r="3"></circle>
                <circle id="Oval-6" cx="51" cy="83" r="3"></circle>
                <circle id="Oval-6" cx="67" cy="67" r="3"></circle>
                <circle id="Oval-6" cx="83" cy="67" r="3"></circle>
                <circle id="Oval-6" cx="67" cy="83" r="3"></circle>
                <circle id="Oval-6" cx="83" cy="83" r="3"></circle>
                <circle id="Oval-6" cx="99" cy="67" r="3"></circle>
                <circle id="Oval-6" cx="99" cy="83" r="3"></circle>
                <circle id="Oval-6" cx="3" cy="99" r="3"></circle>
                <circle id="Oval-6" cx="19" cy="99" r="3"></circle>
                <circle id="Oval-6" cx="3" cy="115" r="3"></circle>
                <circle id="Oval-6" cx="19" cy="115" r="3"></circle>
                <circle id="Oval-6" cx="35" cy="99" r="3"></circle>
                <circle id="Oval-6" cx="51" cy="99" r="3"></circle>
                <circle id="Oval-6" cx="35" cy="115" r="3"></circle>
                <circle id="Oval-6" cx="51" cy="115" r="3"></circle>
                <circle id="Oval-6" cx="67" cy="99" r="3"></circle>
                <circle id="Oval-6" cx="83" cy="99" r="3"></circle>
                <circle id="Oval-6" cx="67" cy="115" r="3"></circle>
                <circle id="Oval-6" cx="83" cy="115" r="3"></circle>
                <circle id="Oval-6" cx="99" cy="99" r="3"></circle>
                <circle id="Oval-6" cx="99" cy="115" r="3"></circle>
            </g>
            <g id="Group-10" transform="translate(72.000000, 572.000000)" fill="#D8D8D8">
                <circle id="Oval-6" cx="3" cy="3" r="3"></circle>
                <circle id="Oval-6" cx="19" cy="3" r="3"></circle>
                <circle id="Oval-6" cx="3" cy="19" r="3"></circle>
                <circle id="Oval-6" cx="19" cy="19" r="3"></circle>
                <circle id="Oval-6" cx="35" cy="3" r="3"></circle>
                <circle id="Oval-6" cx="51" cy="3" r="3"></circle>
                <circle id="Oval-6" cx="35" cy="19" r="3"></circle>
                <circle id="Oval-6" cx="51" cy="19" r="3"></circle>
                <circle id="Oval-6" cx="67" cy="3" r="3"></circle>
                <circle id="Oval-6" cx="83" cy="3" r="3"></circle>
                <circle id="Oval-6" cx="67" cy="19" r="3"></circle>
                <circle id="Oval-6" cx="83" cy="19" r="3"></circle>
                <circle id="Oval-6" cx="99" cy="3" r="3"></circle>
                <circle id="Oval-6" cx="99" cy="19" r="3"></circle>
                <circle id="Oval-6" cx="3" cy="35" r="3"></circle>
                <circle id="Oval-6" cx="19" cy="35" r="3"></circle>
                <circle id="Oval-6" cx="35" cy="35" r="3"></circle>
                <circle id="Oval-6" cx="51" cy="35" r="3"></circle>
                <circle id="Oval-6" cx="67" cy="35" r="3"></circle>
                <circle id="Oval-6" cx="83" cy="35" r="3"></circle>
                <circle id="Oval-6" cx="99" cy="35" r="3"></circle>
            </g>
        </g>
    </g>
</svg>